<?xml version="1.0" standalone="no"?>
<!DOCTYPE svg PUBLIC "-//W3C//DTD SVG 1.1//EN" "http://www.w3.org/Graphics/SVG/1.1/DTD/svg11.dtd" >
<svg xmlns="http://www.w3.org/2000/svg">
<metadata>
This is a custom SVG webfont generated by Font Squirrel.
Copyright   :  2003 Ray Larabie This font is freeware Read attached text file for details This font was updated in 2004 Dont forget to have a look at the rest of the Neuropol X family at Typodermic Also  check out the Neuropol Nova familyhttpwwwtypodermiccom
Designer    : Ray Larabie
Foundry     : Ray Larabie
Foundry URL : httpwwwtypodermiccom
</metadata>
<defs>
<font id="NeuropolXFreeRegular" horiz-adv-x="1845" >
<font-face units-per-em="2048" ascent="1638" descent="-410" />
<missing-glyph horiz-adv-x="796" />
<glyph unicode=" "  horiz-adv-x="796" />
<glyph unicode="&#x09;" horiz-adv-x="796" />
<glyph unicode="&#xa0;" horiz-adv-x="796" />
<glyph unicode="!" horiz-adv-x="675" d="M170 111q0 104 135 104q141 0 141 -104q0 -109 -141 -109q-135 0 -135 109zM201 410v942q0 90 104 90q109 0 109 -90v-942q0 -88 -109 -88q-104 0 -104 88z" />
<glyph unicode="&#x22;" horiz-adv-x="940" d="M190 1006v356q0 88 99 88q98 0 98 -88v-356q0 -88 -98 -88q-99 0 -99 88zM504 1006v356q0 88 98 88t98 -88v-356q0 -88 -98 -88t-98 88z" />
<glyph unicode="#" horiz-adv-x="1724" d="M55 526q0 82 76 82h244l69 213h-217q-80 0 -80 92q0 80 80 80h269l114 373q10 29 34 43t48 14q25 0 46.5 -7t40 -21.5t31.5 -31.5t13 -38q0 -6 -4 -20l-98 -312h422l117 373q8 31 30.5 45t48.5 14q23 0 46.5 -8t41 -22.5t28.5 -33t11 -38.5q0 -14 -6 -23l-90 -307h150 q80 0 79 -80q0 -92 -79 -92h-205l-66 -213h176q78 0 78 -82q0 -88 -78 -88h-233l-115 -368q-8 -31 -30.5 -43.5t-51.5 -12.5q-23 0 -44 7.5t-38.5 21.5t-28 32.5t-10.5 39.5q0 16 3 22l94 301h-424l-115 -368q-8 -31 -31.5 -44.5t-48.5 -13.5q-23 0 -45 7.5t-39.5 22.5 t-29 34.5t-11.5 40.5q0 16 2 22l95 299h-193q-76 0 -76 88zM602 608h422l68 213h-424z" />
<glyph unicode="$" horiz-adv-x="1753" d="M86 88q0 84 80 84h592v477h-105q-559 0 -559 338v78q0 367 492 367h172v30q0 92 112 92q100 0 101 -92v-645h86q592 0 592 -362v-113q0 -342 -537 -342h-141v-55q0 -82 -105 -82q-109 0 -108 82v55h-592q-80 0 -80 88zM301 958q0 -141 307 -141h150v445h-213 q-244 0 -244 -166v-138zM971 172h176q295 0 295 145v168q0 164 -350 164h-121v-477z" />
<glyph unicode="%" horiz-adv-x="2250" d="M84 991v156q0 285 428 285h59q408 0 408 -281v-160q0 -272 -408 -272h-67q-420 0 -420 272zM270 987q0 -111 209 -110h127q176 0 176 110v189q0 94 -180 94h-125q-207 0 -207 -117v-166zM414 92q0 12 5 27.5t17 27.5l1174 1313q27 31 61 31q23 0 44.5 -10.5t39 -26.5 t26.5 -38.5t9 -41.5q0 -16 -4 -29.5t-14 -25.5l-1176 -1311q-12 -18 -28.5 -23t-35.5 -5q-20 0 -41.5 9t-39 23.5t-27.5 35.5t-10 44zM1198 272v158q0 283 428 283h62q403 0 403 -281v-160q0 -272 -403 -272h-70q-420 0 -420 272zM1382 270q0 -106 209 -106h131 q176 0 176 106v183q0 102 -180 102h-129q-207 0 -207 -121v-164z" />
<glyph unicode="&#x26;" horiz-adv-x="2142" d="M141 317v62q0 76 24.5 130t75 96t129.5 78t189 77l-151 92q-113 74 -113 231v43q0 305 481 306h260q463 0 463 -304v-41q0 -102 -47 -172.5t-162 -105.5l-307 -100l604 -369q43 92 43 207v117q0 86 101 86q104 0 104 -84v-115q0 -195 -76 -315l142 -84q23 -12 32 -31 t9 -35q0 -35 -28 -65.5t-67 -30.5q-25 0 -49 18l-166 96q-147 -104 -428 -104h-487q-576 0 -576 317zM354 293q0 -121 330 -121h559q135 0 215 41l-696 426l-51 -18q-188 -57 -272.5 -108.5t-84.5 -104.5v-115zM502 1057q0 -51 84 -105l-2 2l196 -123l424 140 q41 14 61.5 33.5t20.5 50.5v88q0 119 -219 119h-332q-233 0 -233 -109v-96z" />
<glyph unicode="'" horiz-adv-x="647" d="M186 1006v356q0 88 99 88q98 0 98 -88v-356q0 -88 -96 -88q-101 0 -101 88z" />
<glyph unicode="(" horiz-adv-x="804" d="M152 162v1134q0 270 331 271h39q78 0 78 -86q0 -88 -78 -88q-158 0 -157 -97v-1130q0 -127 157 -127q78 0 78 -86t-78 -86h-26q-344 0 -344 295z" />
<glyph unicode=")" horiz-adv-x="798" d="M135 -47q0 86 78 86q158 0 158 127v1130q0 96 -156 97q-80 0 -80 88q0 86 80 86h39q330 0 330 -271v-1134q0 -295 -342 -295h-27q-80 0 -80 86z" />
<glyph unicode="*" horiz-adv-x="1155" d="M84 877q0 25 14.5 45t44.5 32l250 70l88 18l-88 17l-250 78q-31 10 -43 29.5t-12 47.5q0 27 12.5 55.5t29.5 50t42 37t47 15.5q25 0 49 -24l187 -177l61 -69l-33 74q-31 133 -44 196.5t-15 71.5q0 51 39 73.5t90 22.5q49 0 87 -21.5t38 -60.5q0 -10 -4 -26l-60 -246 l-30 -84l55 65l186 174q25 25 47 25q25 0 49.5 -13.5t44 -38t30 -53t10.5 -57.5q0 -23 -11.5 -44t-40.5 -32l-254 -71l-82 -15l80 -10l252 -78q55 -20 56 -77q0 -29 -11.5 -56.5t-31 -51.5t-44 -38t-47.5 -14q-25 -2 -45 20l-188 181l-55 67l30 -88l60 -258q2 -8 2 -16v-9 q0 -39 -36 -56t-81 -17q-27 0 -51.5 5t-43 15t-31.5 25.5t-13 36.5v12q0 4 4 10l59 250l33 90l-55 -67l-193 -181q-25 -20 -51 -20q-20 0 -45 14t-45.5 39t-31.5 51.5t-11 55.5z" />
<glyph unicode="+" horiz-adv-x="868" d="M8 715q0 82 74 82h215v141q0 86 102 86t103 -86v-141h225q72 0 72 -82q0 -86 -72 -86h-225v-146q0 -88 -96 -88q-104 0 -105 88v146h-219q-74 0 -74 86z" />
<glyph unicode="," horiz-adv-x="446" d="M57 -135q0 2 1 3t1 5l66 350q8 45 44 69.5t75 24.5q43 0 68.5 -21.5t25.5 -59.5v-13q0 -6 -2 -10l-86 -344q-14 -43 -46 -63.5t-65 -20.5q-35 0 -58.5 23.5t-23.5 56.5z" />
<glyph unicode="-" horiz-adv-x="1345" d="M184 594q0 80 84 80h756q72 0 72 -76q0 -80 -72 -80h-756q-84 0 -84 76z" />
<glyph unicode="." horiz-adv-x="632" d="M145 111q0 104 138 104q137 0 137 -104q0 -109 -137 -109q-138 0 -138 109z" />
<glyph unicode="/" horiz-adv-x="1636" d="M63 72q0 33 31 63l1249 1290q29 29 68 29q20 0 41 -7t36 -20.5t25.5 -31t10.5 -37.5q0 -37 -33 -70l-1270 -1290q-25 -25 -55 -25q-39 0 -71 30t-32 69z" />
<glyph unicode="0" horiz-adv-x="2058" d="M170 389v617q0 426 584 426h497q578 0 578 -426v-582q0 -424 -580 -424h-499q-580 0 -580 389zM381 362q0 -190 313 -190h611q309 0 309 193v667q0 229 -309 230h-611q-158 0 -234.5 -58.5t-76.5 -171.5z" />
<glyph unicode="1" horiz-adv-x="614" d="M170 80v1272q0 90 104 90q109 0 109 -90v-1272q0 -90 -109 -90q-104 0 -104 90z" />
<glyph unicode="2" horiz-adv-x="2160" d="M170 72v383q0 342 592 342h682q268 0 268 157v150q0 158 -252 158h-360q-86 0 -86 84q0 86 86 86h330q500 0 499 -357v-92q0 -360 -512 -360h-692q-344 0 -344 -164v-287h1470q78 0 78 -86t-78 -86h-1611q-70 0 -70 72z" />
<glyph unicode="3" horiz-adv-x="1996" d="M-16 727q0 90 92 90h1159q315 0 315 156v137q0 152 -319 152h-277q-88 0 -88 84q0 86 88 86h220q594 0 593 -330v-86q0 -201 -225 -277q225 -72 225 -290v-82q0 -367 -577 -367h-1114q-90 0 -90 86t90 86h1151q324 0 323 182v142q-16 145 -315 145h-1159q-92 0 -92 86z " />
<glyph unicode="4" horiz-adv-x="2197" d="M104 494v858q0 90 109 90q102 0 102 -90v-768h1440v768q0 90 107 90q106 0 106 -90v-1272q0 -90 -106 -90t-107 90v295h-1538q-113 0 -113 119z" />
<glyph unicode="5" horiz-adv-x="2127" d="M92 86q0 86 84 86h1127q383 0 383 176v215q0 197 -310 197h-1200q-68 0 -67 69v533q0 70 67 70h842q86 0 86 -86q0 -84 -86 -84h-699v-334h1018q561 0 561 -365v-215q0 -348 -612 -348h-1110q-84 0 -84 86z" />
<glyph unicode="6" horiz-adv-x="2160" d="M170 340v737q0 352 684 353h199q86 0 86 -84t-86 -84h-291q-377 0 -377 -211v-115h1006q602 0 602 -358v-230q0 -348 -551 -348h-680q-592 0 -592 340zM385 375q0 -203 346 -203h748q303 0 303 178v223q0 188 -352 189h-1045v-387z" />
<glyph unicode="7" horiz-adv-x="1843" d="M-6 1352q0 80 84 80h1546q66 0 95.5 -30t29.5 -71q0 -20 -7 -41.5t-22 -40.5l-981 -1216q-29 -35 -67 -35q-37 0 -68 30.5t-31 69.5q0 35 27 68l879 1096h-1401q-84 0 -84 90z" />
<glyph unicode="8" horiz-adv-x="2197" d="M170 342v104q0 203 254 285q-227 74 -227 240v108q0 352 581 353h576q580 0 579 -355v-108q0 -162 -221 -238q254 -78 254 -285v-96q0 -350 -580 -350h-638q-578 0 -578 342zM379 309q0 -137 334 -137h706q334 0 334 139v162q0 168 -334 168h-706q-334 0 -334 -168v-164z M410 954q0 -135 292 -135h719q303 0 303 135v156q0 152 -303 152h-708q-303 0 -303 -152v-156z" />
<glyph unicode="9" horiz-adv-x="2045" d="M104 854v236q0 342 553 342h574q584 0 584 -406v-670q0 -356 -560 -356h-249q-90 0 -91 86q0 86 91 86h211q193 0 292 52t99 151v123h-899q-605 0 -605 356zM319 858q0 -184 353 -184h936v383q0 205 -340 205h-658q-291 0 -291 -181v-223z" />
<glyph unicode=":" horiz-adv-x="669" d="M166 117q0 104 133 104q141 0 141 -104q0 -106 -137 -107q-137 1 -137 107zM166 684q0 106 133 107q141 0 141 -107q0 -106 -137 -106t-137 106z" />
<glyph unicode=";" horiz-adv-x="493" d="M72 -137q0 6 2 10l63 350q10 45 46 69.5t75 24.5q43 0 69.5 -20.5t26.5 -56.5v-15q0 -8 -4 -12l-86 -344q-10 -43 -44 -63.5t-64 -20.5q-35 0 -59.5 23.5t-24.5 54.5zM109 680q0 109 135 108q137 0 137 -108q0 -106 -135 -107q-137 1 -137 107z" />
<glyph unicode="&#x37e;" horiz-adv-x="493" d="M72 -137q0 6 2 10l63 350q10 45 46 69.5t75 24.5q43 0 69.5 -20.5t26.5 -56.5v-15q0 -8 -4 -12l-86 -344q-10 -43 -44 -63.5t-64 -20.5q-35 0 -59.5 23.5t-24.5 54.5zM109 680q0 109 135 108q137 0 137 -108q0 -106 -135 -107q-137 1 -137 107z" />
<glyph unicode="&#x3c;" horiz-adv-x="1050" d="M-18 633q0 57 55 80l682 321q25 12 47 13q47 0 76.5 -31t29.5 -68q0 -27 -15 -46t-46 -34l-522 -239l528 -244q31 -12 46.5 -34.5t15.5 -47.5q0 -43 -28 -74.5t-73 -31.5q-10 0 -21.5 2t-25.5 10l-696 342q-53 25 -53 82z" />
<glyph unicode="=" horiz-adv-x="1353" d="M188 459q0 76 78 76h758q72 0 72 -80q0 -78 -72 -78h-758q-78 0 -78 82zM188 823q0 74 78 74h758q84 0 84 -82q0 -76 -84 -76h-758q-78 0 -78 84z" />
<glyph unicode="&#x3e;" horiz-adv-x="1048" d="M109 950q0 39 28.5 72t69.5 33q10 -2 23.5 -5t25.5 -10l698 -342q51 -27 52 -82q0 -59 -52 -81l-686 -322q-23 -12 -49 -12q-20 0 -38.5 8t-33 23.5t-22.5 33t-8 35.5q0 23 14 44.5t45 33.5l524 242l-530 241q-33 12 -47 34.5t-14 53.5z" />
<glyph unicode="?" horiz-adv-x="1497" d="M170 117q0 104 135 104q141 0 141 -104q0 -106 -141 -107q-135 1 -135 107zM213 432v47q0 264 330 264h215q311 0 311 144v190q0 184 -311 185h-96q-78 0 -78 81q0 88 78 89h59q547 0 547 -381v-138q0 -340 -551 -340h-197q-106 0 -106 -92v-49q0 -102 -105 -102 q-96 0 -96 102z" />
<glyph unicode="@" horiz-adv-x="1837" d="M170 330v794q0 307 387 308h694q354 0 355 -289v-535q0 -252 -267 -252h-469q-168 0 -254 57.5t-86 172.5v256q0 225 336 225h275q63 0 63 -66v-466h133q72 0 72 73v570q0 84 -158 84h-692q-199 0 -201 -138l2 -794q0 -158 207 -158h127q86 0 86 -76q0 -96 -86 -96h-82 q-442 0 -442 330zM717 588q0 -53 149 -53h152v370h-158q-143 0 -143 -59v-258z" />
<glyph unicode="A" horiz-adv-x="2121" d="M55 86q0 27 15 53l821 1231q27 39 62.5 57.5t74.5 18.5t75 -18.5t60 -57.5l826 -1229q12 -14 15 -29.5t3 -25.5q0 -43 -31.5 -67.5t-74.5 -24.5q-20 0 -44 11t-42 34l-236 350h-1098l-237 -354q-16 -23 -39 -34t-41 -11q-43 0 -76 27.5t-33 68.5zM594 563h866l-428 684z " />
<glyph unicode="B" horiz-adv-x="2099" d="M170 72v1290q0 70 68 70h1079q252 0 379 -91.5t127 -277.5v-74q0 -197 -207 -272q252 -78 252 -299v-70q0 -348 -502 -348h-1128q-68 0 -68 72zM381 172h985q287 0 287 145v138q0 168 -348 168h-924v-451zM391 797h909q303 0 304 155v146q0 164 -283 164h-930v-465z" />
<glyph unicode="C" horiz-adv-x="1794" d="M170 358v736q0 338 563 338h828q78 0 77 -86q0 -84 -77 -84h-822q-358 0 -358 -168v-729q0 -193 393 -193h787q78 0 77 -86q0 -86 -77 -86h-816q-575 0 -575 358z" />
<glyph unicode="D" horiz-adv-x="2115" d="M170 72v1290q0 70 70 70h1091q551 0 551 -355v-702q0 -375 -555 -375h-1087q-70 0 -70 72zM385 172h936q350 0 350 203v702q0 184 -344 185h-942v-1090z" />
<glyph unicode="E" horiz-adv-x="1857" d="M170 344v733q0 176 143.5 265.5t431.5 89.5h250q74 0 74 -89q0 -82 -74 -81h-168q-442 0 -442 -185v-280h1260q74 0 73 -88q0 -86 -73 -86h-1260v-269q0 -182 348 -182h912q78 0 77 -86q0 -86 -77 -86h-920q-555 0 -555 344z" />
<glyph unicode="F" horiz-adv-x="1763" d="M170 80v993q0 358 561 359h191q84 0 84 -82q0 -88 -84 -88h-170q-367 0 -367 -187v-278h1251q82 0 82 -84q0 -90 -82 -90h-1251v-543q0 -90 -104 -90q-111 0 -111 90z" />
<glyph unicode="G" horiz-adv-x="2035" d="M170 348v742q0 342 586 342h227q76 0 76 -86q0 -84 -76 -84h-162q-436 0 -436 -172v-742q0 -176 371 -176h575q315 0 316 170v383q0 86 108 86q106 0 107 -86v-375q0 -350 -531 -350h-581q-580 0 -580 348z" />
<glyph unicode="H" horiz-adv-x="2158" d="M193 80v1272q0 90 110 90q104 0 105 -90v-555h1286v555q0 90 102 90q109 0 109 -90v-1272q0 -90 -107 -90q-104 0 -104 90v543h-1286v-543q0 -90 -109 -90q-106 0 -106 90z" />
<glyph unicode="I" horiz-adv-x="618" d="M170 80v1274q0 88 113 88q102 0 102 -88v-1274q0 -88 -109 -88q-106 0 -106 88z" />
<glyph unicode="J" horiz-adv-x="964" d="M-16 86q0 86 86 86h123q328 0 327 223v957q0 90 107 90q106 0 106 -90v-942q0 -410 -540 -410h-123q-86 0 -86 86z" />
<glyph unicode="K" horiz-adv-x="1818" d="M170 80v1272q0 90 106 90q100 0 101 -90v-527l1081 600q14 10 27.5 13.5t27.5 3.5q41 0 71 -30t30 -66q0 -18 -10.5 -38t-36.5 -34l-1024 -545l1059 -563q27 -16 39 -36.5t12 -43.5q0 -35 -25.5 -64.5t-64.5 -29.5q-27 0 -54 16l-1132 617v-545q0 -90 -103 -90 q-104 0 -104 90z" />
<glyph unicode="L" horiz-adv-x="1771" d="M170 367v987q0 88 106 88q109 0 109 -88v-987q0 -195 438 -195h834q82 0 82 -92q0 -80 -82 -80h-823q-664 0 -664 367z" />
<glyph unicode="M" horiz-adv-x="2727" d="M170 80v1239q0 123 119 123q84 0 141 -76l913 -1165l898 1177q23 31 57.5 47.5t73.5 16.5q125 0 125 -127v-1235q0 -90 -109 -90q-102 0 -102 90v1044l-799 -1061q-57 -74 -146 -73q-49 0 -84.5 18.5t-64.5 54.5l-813 1057v-1040q0 -90 -103 -90q-106 0 -106 90z" />
<glyph unicode="N" horiz-adv-x="2103" d="M170 80v1227q0 68 41 98.5t90 30.5q29 0 57.5 -9.5t51.5 -31.5l1251 -1108v1065q0 90 111 90q100 0 100 -90v-1221q0 -72 -39 -106.5t-90 -34.5q-25 0 -51.5 9t-49.5 32l-1263 1130v-1081q0 -90 -105 -90q-104 0 -104 90z" />
<glyph unicode="O" horiz-adv-x="2058" d="M170 371v686q0 375 629 375h399q631 0 631 -375v-682q0 -375 -631 -375h-399q-629 0 -629 371zM385 377q0 -205 371 -205h499q360 0 361 205v670q0 215 -348 215h-512q-371 0 -371 -215v-670z" />
<glyph unicode="P" horiz-adv-x="1984" d="M170 80v1282q0 70 70 70h1067q573 0 573 -320v-250q0 -336 -582 -336h-913v-446q0 -90 -109 -90q-106 0 -106 90zM385 700h938q346 0 346 174v220q0 168 -332 168h-952v-562z" />
<glyph unicode="Q" horiz-adv-x="2103" d="M170 371v696q0 365 547 365h596q559 0 559 -361v-700q0 -242 -258 -330l108 -61q20 -10 32.5 -33t12.5 -43q0 -37 -29.5 -62.5t-68.5 -25.5q-20 0 -51 14l-299 176h-600q-549 0 -549 365zM385 367q0 -195 393 -195h570q309 0 309 193v708q0 188 -402 189h-477 q-393 0 -393 -189v-706z" />
<glyph unicode="R" horiz-adv-x="1972" d="M170 80v1282q0 70 70 70h1032q594 0 594 -369v-154q0 -342 -545 -342h-522l903 -395q31 -12 44 -33.5t13 -44.5q0 -39 -26.5 -71.5t-67.5 -32.5q-18 0 -41 12l-1239 580v-502q0 -90 -104 -90q-111 0 -111 90zM385 737h956q313 0 314 152v186q0 186 -350 187h-920v-525z " />
<glyph unicode="S" horiz-adv-x="1835" d="M104 88q0 84 80 84h979q293 0 293 168v123q0 186 -350 186h-432q-559 0 -559 301v144q0 338 489 338h238q80 0 80 -89q0 -82 -80 -81h-271q-244 0 -243 -183v-108q0 -154 311 -154h438q592 0 592 -334v-153q0 -330 -534 -330h-951q-80 0 -80 88z" />
<glyph unicode="T" horiz-adv-x="1589" d="M-10 1350q0 82 80 82h1390q76 0 76 -82q0 -88 -76 -88h-588v-1182q0 -90 -108 -90q-106 0 -107 90v1182h-587q-80 0 -80 88z" />
<glyph unicode="U" horiz-adv-x="2093" d="M170 393v959q0 90 104 90q111 0 111 -90v-942q0 -238 420 -238h389q459 0 459 238v942q0 90 106 90q104 0 105 -90v-959q0 -393 -705 -393h-321q-668 0 -668 393z" />
<glyph unicode="V" horiz-adv-x="2109" d="M51 1343q0 41 33 69t74 28q23 0 46 -11.5t40 -37.5l786 -1209l774 1207q16 27 39 39t47 12q41 0 74 -29t33 -70q-2 -10 -5 -24t-12 -27l-817 -1220q-27 -39 -63.5 -59.5t-75.5 -20.5t-74 18.5t-61 59.5l-819 1220q-19 28 -19 55z" />
<glyph unicode="W" horiz-adv-x="2772" d="M55 1343q0 43 35 70t76 27q29 0 53.5 -13.5t34.5 -44.5l500 -1149l469 1108q18 47 57 71t80 24t74.5 -21.5t52.5 -62.5l479 -1119l488 1149q12 29 36.5 44.5t55.5 15.5q18 0 38.5 -8.5t36 -20.5t25.5 -30.5t10 -39.5q0 -16 -6 -38l-557 -1219q-18 -45 -56 -67.5 t-81 -22.5q-39 0 -77 21.5t-56 64.5l-461 1092l-479 -1096q-16 -39 -52 -60.5t-81 -21.5q-43 0 -79 21.5t-57 66.5l-555 1223q-4 16 -4 36z" />
<glyph unicode="X" horiz-adv-x="1873" d="M76 86q0 10 6 26.5t20 26.5l662 578l-647 567q-20 16 -28.5 33.5t-8.5 34.5q0 37 29.5 63.5t70.5 26.5q37 0 72 -29l653 -573l654 571q33 31 71 31q41 0 72 -28t31 -64q0 -35 -39 -68l-647 -565l659 -576q33 -27 33 -55q0 -18 -9.5 -34.5t-24.5 -29t-35.5 -19.5t-41.5 -7 q-16 0 -34.5 6t-30.5 18l-658 570l-655 -570q-33 -27 -68 -26q-18 0 -38.5 7t-35 20.5t-23.5 30t-9 34.5z" />
<glyph unicode="Y" horiz-adv-x="1785" d="M47 1343q0 37 33 65t74 28q18 0 37.5 -5.5t33.5 -21.5l635 -635l633 635q29 29 72 29q41 0 75.5 -29t34.5 -66q0 -29 -26 -57l-680 -682l-2 -526q-10 -88 -105 -88q-106 0 -106 90v524l-680 682q-29 28 -29 57z" />
<glyph unicode="Z" horiz-adv-x="1757" d="M68 117q0 47 38 80l1219 1065h-1155q-78 0 -78 88q0 82 78 82h1358q45 0 72.5 -33t27.5 -72q0 -41 -31 -67l-1247 -1088h1200q78 0 78 -86t-78 -86h-1351q-59 0 -95 36t-36 81z" />
<glyph unicode="[" horiz-adv-x="681" d="M193 -61v1556q0 43 14 57.5t53 14.5h258q82 0 82 -82q0 -92 -82 -92h-110v-1354h106q86 0 86 -86t-86 -86h-254q-33 0 -50 13.5t-17 58.5z" />
<glyph unicode="\" horiz-adv-x="1638" d="M63 1366q0 43 31 70.5t72 27.5t78 -37l1251 -1290q31 -33 31 -74q0 -39 -28 -65.5t-64 -26.5q-37 0 -70 33l-1268 1288q-18 16 -25.5 36t-7.5 38z" />
<glyph unicode="]" horiz-adv-x="688" d="M20 -47q0 86 89 86h106v1354h-115q-80 0 -80 92q0 82 80 82h260q35 0 51.5 -14.5t16.5 -57.5v-1556q0 -45 -17.5 -58.5t-50.5 -13.5h-251q-89 0 -89 86z" />
<glyph unicode="^" horiz-adv-x="960" d="M63 1378q0 18 21 39l291 307q18 16 35.5 25.5t38.5 9.5q41 0 73 -35l291 -305q20 -25 21 -45q0 -29 -24 -49t-52 -20q-14 0 -29.5 6t-28.5 20l-251 264l-250 -264q-23 -27 -52 -26q-31 0 -57.5 22t-26.5 51z" />
<glyph unicode="_" horiz-adv-x="2158" d="M186 -272q0 98 95 98h1536q94 0 94 -102q0 -104 -94 -105h-1536q-95 0 -95 109z" />
<glyph unicode="`" horiz-adv-x="497" d="M-6 1581q0 27 20.5 48.5t44.5 21.5q14 0 26.5 -6.5t27.5 -18.5l307 -326q20 -23 20 -40q0 -27 -24.5 -46.5t-50.5 -19.5q-27 0 -43 18l-306 320q-12 10 -17 22.5t-5 26.5z" />
<glyph unicode="a" horiz-adv-x="1878" d="M96 307v142q0 319 482 319h868q-20 162 -244 162h-241q-72 0 -72 84q0 80 72 80h210q465 0 465 -328v-447q0 -319 -465 -319h-583q-492 0 -492 307zM299 305q0 -139 250 -139h657q242 0 242 211v225h-916q-233 0 -233 -147v-150z" />
<glyph unicode="b" horiz-adv-x="1878" d="M170 330v1024q0 88 100 88q98 0 99 -88v-260h731q547 0 547 -338v-418q0 -338 -547 -338h-367q-563 0 -563 330zM369 330q0 -164 327 -164h478q139 0 207.5 44t68.5 132v406q0 182 -313 182h-768v-600z" />
<glyph unicode="c" horiz-adv-x="1642" d="M170 324v448q0 322 492 322h731q94 0 94 -80q0 -84 -94 -84h-758q-266 0 -266 -152v-446q0 -166 305 -166h719q86 0 86 -88q0 -78 -86 -78h-682q-541 0 -541 324z" />
<glyph unicode="d" horiz-adv-x="1880" d="M170 301v457q0 336 547 336h733v260q0 88 96 88q100 0 101 -88v-1035q0 -319 -560 -319h-370q-547 0 -547 301zM369 342q0 -176 293 -176h458q330 0 330 176v586h-776q-305 0 -305 -195v-391z" />
<glyph unicode="e" horiz-adv-x="1851" d="M170 338v420q0 336 549 336h450q461 0 461 -291v-262q0 -92 -88 -92h-1173v-136q0 -147 305 -147h219q84 0 84 -82q0 -84 -84 -84h-168q-555 0 -555 338zM369 621h1069v161q0 147 -230 148h-534q-305 0 -305 -156v-153z" />
<glyph unicode="f" horiz-adv-x="872" d="M180 78v1016q0 330 463 329h121q78 0 78 -82q0 -78 -76 -77h-164q-223 0 -227 -170h393q74 0 74 -80q0 -84 -74 -84h-393v-852q0 -88 -96 -88q-99 0 -99 88z" />
<glyph unicode="g" horiz-adv-x="1859" d="M170 330v432q0 332 528 332h357q575 0 575 -334v-744q0 -328 -543 -327h-163q-86 0 -86 80q0 82 86 81h188q322 0 322 136v14h-684q-580 0 -580 330zM369 332q0 -166 342 -166h716v582q0 182 -317 182h-446q-295 0 -295 -164v-434z" />
<glyph unicode="h" horiz-adv-x="1859" d="M170 78v1276q0 88 98 88q100 0 101 -88v-260h663q598 0 598 -346v-670q0 -88 -100 -88t-100 88v665q0 186 -336 187h-725v-852q0 -88 -101 -88q-98 0 -98 88z" />
<glyph unicode="i" horiz-adv-x="540" d="M104 1251q0 104 132 105q139 0 139 -105q0 -104 -139 -104q-132 0 -132 104zM147 78v868q0 84 93 84q100 0 100 -84v-868q0 -88 -96 -88q-97 0 -97 88z" />
<glyph unicode="j" horiz-adv-x="616" d="M-270 -160q0 86 84 86h170q233 0 233 137v883q0 84 98 84q100 0 101 -84v-862q0 -322 -445 -322h-157q-84 0 -84 78zM180 1257q0 102 135 103q133 0 134 -103q0 -106 -134 -106q-135 0 -135 106z" />
<glyph unicode="k" horiz-adv-x="1511" d="M170 78v1276q0 88 100 88q96 0 97 -88v-682l882 424q18 12 37 12q35 0 63.5 -29.5t28.5 -62.5q0 -18 -11 -36.5t-36 -29.5l-815 -385l819 -413q20 -12 31.5 -31t11.5 -35q0 -37 -28.5 -66.5t-67.5 -29.5q-20 0 -47 12l-868 449v-373q0 -88 -97 -88q-100 0 -100 88z" />
<glyph unicode="l" horiz-adv-x="600" d="M170 78v1276q0 88 98 88q100 0 101 -88v-1276q0 -88 -99 -88q-100 0 -100 88z" />
<glyph unicode="m" horiz-adv-x="2416" d="M170 78v670q0 346 526 346q387 0 490 -181q104 180 475 181q522 0 522 -346v-670q0 -88 -100 -88q-98 0 -98 88v696q0 156 -324 156q-383 0 -383 -187v-665q0 -88 -96 -88q-104 0 -105 88v665q0 186 -381 187q-328 0 -327 -158v-694q0 -88 -101 -88q-98 0 -98 88z" />
<glyph unicode="n" d="M170 78v719q0 297 528 297h385q530 0 531 -297v-719q0 -88 -101 -88q-102 0 -102 88v719q0 133 -268 133h-500q-274 0 -274 -133v-719q0 -88 -99 -88q-100 0 -100 88z" />
<glyph unicode="o" d="M170 332v422q0 340 532 340h396q516 0 516 -338v-424q0 -332 -516 -332h-402q-526 0 -526 332zM369 332q0 -166 305 -166h454q281 0 281 166v440q0 158 -281 158h-454q-305 0 -305 -176v-422z" />
<glyph unicode="p" horiz-adv-x="1859" d="M170 -248v1026q0 315 526 316h381q553 0 553 -312v-452q0 -330 -495 -330h-766v-248q0 -90 -101 -90q-98 0 -98 90zM369 166h798q260 0 260 162v450q0 152 -317 152h-436q-305 0 -305 -156v-608z" />
<glyph unicode="q" horiz-adv-x="1859" d="M170 330v452q0 311 553 312h379q528 0 528 -316v-1026q0 -90 -98 -90q-102 0 -102 90v248h-766q-494 0 -494 330zM369 328q0 -162 262 -162h799v608q0 156 -302 156h-442q-317 0 -317 -152v-450z" />
<glyph unicode="r" horiz-adv-x="964" d="M170 78v684q0 332 506 332h90q76 0 76 -82t-64 -82h-123q-285 0 -284 -168v-684q0 -88 -101 -88q-100 0 -100 88z" />
<glyph unicode="s" horiz-adv-x="1587" d="M104 80q0 86 89 86h874q180 0 180 125v65q0 121 -203 121h-462q-463 0 -463 277v73q0 266 440 267h234q86 0 86 -82t-86 -82h-281q-197 0 -197 -103v-69q0 -119 232 -119h473q432 0 432 -283v-65q0 -291 -420 -291h-839q-89 0 -89 80z" />
<glyph unicode="t" horiz-adv-x="956" d="M55 1014q0 80 82 80h99v260q0 88 102 88q94 0 94 -88v-260h399q82 0 82 -82t-82 -82h-399v-852q0 -88 -96 -88q-100 0 -100 88v852h-99q-82 0 -82 84z" />
<glyph unicode="u" horiz-adv-x="1882" d="M182 317v709q0 86 99 86q98 0 98 -86v-709q0 -152 332 -151h409q324 0 324 147v713q0 84 102 84q98 0 99 -84v-709q0 -317 -558 -317h-344q-561 0 -561 317z" />
<glyph unicode="v" horiz-adv-x="1828" d="M51 1032q0 35 31 61.5t65 26.5q20 0 40 -8t32 -27l666 -870l663 875q20 27 62 26q18 0 38.5 -5t37 -18.5t27.5 -28.5t11 -32q0 -25 -22 -53l-744 -944q-37 -45 -77 -45q-39 0 -70 41l-741 948q-19 22 -19 53z" />
<glyph unicode="w" horiz-adv-x="2295" d="M55 1008q0 43 32 71.5t71 28.5q23 0 44 -13.5t34 -37.5l387 -832l376 799q16 37 49 54.5t68 17.5q37 0 71 -16.5t48 -53.5l379 -801l383 832q10 20 28.5 29.5t42.5 9.5q18 0 38 -7.5t37.5 -18.5t27.5 -26.5t10 -35.5q0 -18 -8 -33l-432 -916q-16 -35 -53 -52t-78 -17 q-39 0 -74 16.5t-47 48.5l-369 801l-377 -801q-16 -33 -52 -50t-77 -17t-76.5 17.5t-52.5 51.5l-422 912q-8 21 -8 39z" />
<glyph unicode="x" horiz-adv-x="1691" d="M106 1006q0 41 29 68.5t68 27.5q14 0 32.5 -4t32.5 -19l545 -417l549 417q29 27 63 27q41 0 69 -32t28 -68q0 -37 -39 -68l-516 -391l516 -397q31 -25 30 -60q0 -20 -7 -38.5t-19 -33t-27.5 -24.5t-34.5 -10q-25 0 -51 24l-561 422l-557 -422q-23 -20 -51 -20 q-37 0 -62.5 32.5t-25.5 69.5q0 16 8 31.5t22 28.5l515 397l-515 391q-41 33 -41 68z" />
<glyph unicode="y" horiz-adv-x="1849" d="M170 317v709q0 84 100 84q98 0 99 -84v-709q0 -152 284 -151h770v860q0 84 99 84q98 0 98 -84v-1036q0 -301 -453 -301h-249q-76 0 -76 82q0 80 76 79h268q238 0 237 140v10h-733q-520 0 -520 317z" />
<glyph unicode="z" horiz-adv-x="1810" d="M133 102q0 27 16.5 50.5t47.5 44.5l1071 733h-1002q-84 0 -84 82t84 82h1188q57 0 90 -31t33 -70q0 -25 -13.5 -50t-43.5 -44l-1074 -733h1104q80 0 80 -82q0 -84 -80 -84h-1290q-55 0 -91 30.5t-36 71.5z" />
<glyph unicode="{" horiz-adv-x="622" d="M33 723q0 90 92 90q23 0 22 35v567q0 152 263 152h24q86 0 86 -90q0 -84 -86 -84h-69q-39 0 -39 -31v-498q0 -88 -113 -147q113 -63 113 -150v-520q0 -8 39 -8h57q80 0 80 -86t-80 -86h-25q-250 0 -250 151v572q0 43 -22 43q-92 0 -92 90z" />
<glyph unicode="|" horiz-adv-x="673" d="M193 -254v1743q0 86 110 86q104 0 105 -86v-1743q0 -104 -115 -104q-100 0 -100 104z" />
<glyph unicode="}" horiz-adv-x="622" d="M39 1477q0 90 88 90h23q260 0 260 -152v-567q0 -35 26 -35q90 0 90 -90t-90 -90q-27 0 -26 -43v-572q0 -152 -246 -151h-29q-78 0 -78 86t78 86h62q37 0 36 8v520q0 90 115 150q-115 53 -115 147v498q0 31 -36 31h-70q-88 0 -88 84z" />
<glyph unicode="~" horiz-adv-x="1613" d="M59 950q0 279 428 279q350 0 385 -264q29 -131 119 -131h131q164 0 164 120q0 92 96 93q104 0 105 -93q0 -289 -426 -288q-354 0 -385 264q-29 133 -121 133h-127q-168 0 -168 -127q0 -92 -94 -92q-107 0 -107 106z" />
<glyph unicode="&#xa1;" horiz-adv-x="505" d="M78 897q0 106 137 107q139 0 139 -107q0 -102 -139 -102q-137 0 -137 102zM111 -365v959q0 94 104 94q109 0 109 -94v-959q0 -94 -111 -94q-102 0 -102 94z" />
<glyph unicode="&#xa2;" horiz-adv-x="1740" d="M100 522v463q0 328 500 328h231v49q0 88 97 88q100 0 100 -88v-49h537q90 0 90 -84t-90 -84h-537v-785h537q86 0 86 -88q0 -76 -86 -75h-537v-125q0 -90 -96 -90q-100 0 -101 90v125h-184q-547 -1 -547 325zM299 535q0 -174 311 -175h221v785h-260q-272 0 -272 -156v-454 z" />
<glyph unicode="&#xa3;" horiz-adv-x="1753" d="M170 96v977q0 358 561 359h191q84 0 84 -82q0 -88 -84 -88h-170q-367 0 -367 -187v-278h797q82 0 82 -84q0 -90 -82 -90h-797v-453h1251q82 0 82 -82q0 -90 -82 -90l-1355 2q-111 0 -111 96z" />
<glyph unicode="&#xa4;" horiz-adv-x="1890" d="M127 524q0 78 74 78h57v203h-57q-74 0 -74 84q0 74 74 74h57v131q0 338 565 338h852q78 0 78 -86q0 -84 -78 -84h-846q-358 0 -358 -168v-131h913q82 0 82 -80q0 -78 -82 -78h-913v-203h711q72 0 71 -80q0 -76 -71 -76h-711v-81q0 -193 393 -193h877q78 0 78 -86t-78 -86 h-905q-578 0 -578 358v88h-57q-74 0 -74 78z" />
<glyph unicode="&#xa5;" horiz-adv-x="1789" d="M53 1343q0 37 32 66t75 29q16 0 34.5 -6.5t32.5 -22.5l637 -635l633 635q29 29 70 29q43 0 76.5 -29t33.5 -66q0 -29 -24 -57l-641 -641h229q84 0 84 -80q0 -78 -84 -78h-272v-112h272q74 0 74 -80q0 -78 -74 -78h-272v-139q-8 -88 -103 -88q-109 0 -108 90v137h-275 q-76 0 -75 82q0 76 75 76h275v112h-275q-76 0 -75 84q0 74 75 74h234l-639 641q-25 26 -25 57z" />
<glyph unicode="&#xa6;" horiz-adv-x="667" d="M188 -254v608q0 86 111 86q106 0 107 -86v-608q0 -104 -115 -104q-103 0 -103 104zM188 850v639q0 86 111 86q106 0 107 -86v-639q0 -104 -115 -105q-103 1 -103 105z" />
<glyph unicode="&#xa7;" horiz-adv-x="1394" d="M102 80q0 86 88 86h693q180 0 180 135q0 117 -197 117h-286q-463 0 -463 280v80q0 123 141 189q-141 66 -141 196q0 266 442 267h45q92 0 92 -84q0 -80 -92 -80h-92q-199 0 -199 -103q0 -117 224 -116h299q432 0 432 -285v-72q0 -129 -142 -192q141 -70 142 -197 q0 -301 -420 -301h-658q-88 0 -88 80zM313 700q0 -115 232 -114h338q180 0 180 104v72q0 119 -203 119h-348q-199 0 -199 -103v-78z" />
<glyph unicode="&#xa8;" horiz-adv-x="1058" d="M176 1475q0 94 121 94q119 0 119 -94q0 -96 -119 -97q-121 1 -121 97zM578 1475q0 94 122 94q119 0 119 -94q0 -96 -119 -97q-122 1 -122 97z" />
<glyph unicode="&#xa9;" horiz-adv-x="1579" d="M152 901q0 139 51 263t140 218.5t208 147.5t250 53q135 0 254 -53t208 -147.5t142 -218.5t53 -263q0 -141 -51 -265t-140 -218t-209 -149.5t-257 -55.5q-135 0 -254 55.5t-206 149.5t-138 218t-51 265zM258 901q0 -123 44 -227.5t118 -182t172 -122.5t209 -45 q113 0 211 46t173 123.5t118 182t43 225.5q0 113 -42 216.5t-117 182t-173.5 126t-212.5 47.5q-111 0 -209 -46.5t-172 -124t-118 -181t-44 -220.5zM498 762v254q0 203 211 203h272q47 0 47 -56q0 -55 -47 -55h-264q-115 0 -115 -96v-248q0 -94 117 -94h260q47 0 47 -56 q0 -55 -47 -55h-272q-209 0 -209 203z" />
<glyph unicode="&#xaa;" horiz-adv-x="1355" d="M78 903v90q0 213 332 213h532q0 98 -131 99h-156q-70 0 -69 67q0 59 69 60h140q322 0 321 -234v-289q0 -229 -321 -229h-379q-338 0 -338 223zM244 885q0 -63 131 -64h438q131 0 131 111v147h-573q-127 0 -127 -65v-129z" />
<glyph unicode="&#xab;" horiz-adv-x="1363" d="M55 631q0 49 41 78l420 323q33 23 57 23q39 0 67 -31t28 -70q0 -43 -43 -75l-334 -250l334 -244q25 -16 35 -37.5t10 -42.5q0 -37 -29 -67.5t-68 -30.5q-14 0 -30.5 4t-26.5 16l-420 328q-41 31 -41 76zM621 631q0 25 10 42t31 36l419 323q14 10 29.5 15.5t30.5 7.5 q39 0 65.5 -31t26.5 -70q0 -45 -43 -75l-332 -250l332 -244q27 -16 36 -37.5t9 -42.5q0 -37 -27.5 -67.5t-66.5 -30.5q-14 0 -30.5 4t-29.5 16l-419 328q-41 31 -41 76z" />
<glyph unicode="&#xac;" horiz-adv-x="1077" d="M-10 594q0 80 80 80h684q74 0 73 -76v-190q0 -88 -98 -89q-102 0 -102 89v110h-557q-80 0 -80 76z" />
<glyph unicode="&#xad;" horiz-adv-x="1345" d="M184 594q0 80 84 80h756q72 0 72 -76q0 -80 -72 -80h-756q-84 0 -84 76z" />
<glyph unicode="&#xae;" horiz-adv-x="1579" d="M152 901q0 139 51 263t140 218.5t208 147.5t250 53q135 0 254 -52t208 -146.5t142 -219.5t53 -264q0 -141 -51 -265t-140 -218t-209 -149.5t-257 -55.5q-135 0 -254 55.5t-206 149.5t-138 218t-51 265zM258 901q0 -123 44 -227.5t118 -182t172 -122.5t209 -45 q113 0 211 46t173 123.5t118 182t43 225.5q0 113 -41 216.5t-116 182t-173 126t-215 47.5q-113 0 -211 -46.5t-172 -124t-117 -181t-43 -220.5zM467 602v641q0 33 31 33h364q248 0 248 -174v-92q0 -80 -56.5 -123t-170.5 -43h-111l322 -215q23 -8 22 -37q0 -20 -15.5 -37.5 t-41.5 -17.5q-2 0 -9.5 1t-17.5 7l-452 305v-248q0 -59 -58 -59q-55 0 -55 59zM580 944h313q113 0 113 66v94q0 70 -129 70h-297v-230z" />
<glyph unicode="&#xaf;" horiz-adv-x="1378" d="M184 1466q0 88 92 88h756q96 0 96 -84q0 -86 -96 -86h-756q-92 0 -92 82z" />
<glyph unicode="&#x2c9;" horiz-adv-x="1378" d="M184 1466q0 88 92 88h756q96 0 96 -84q0 -86 -96 -86h-756q-92 0 -92 82z" />
<glyph unicode="&#xb0;" horiz-adv-x="989" d="M125 1298q0 74 26.5 138.5t72.5 113.5t107.5 76t131.5 27q147 0 244 -103h-2q98 -102 98 -252q0 -72 -24.5 -136t-69.5 -113.5t-107.5 -78t-138.5 -28.5q-70 0 -131.5 27.5t-107.5 76t-72.5 112.5t-26.5 140zM246 1296q0 -94 63 -168h-2q68 -66 156 -65q47 0 87 18.5 t69.5 50t47 74.5t17.5 90q0 49 -18.5 92.5t-48 75t-69.5 49t-85 17.5q-47 0 -86 -19.5t-68.5 -52.5t-46 -75t-16.5 -87z" />
<glyph unicode="&#xb1;" horiz-adv-x="935" d="M39 264q0 76 80 76h643q76 0 76 -72q0 -82 -76 -82h-643q-80 0 -80 78zM43 715q0 82 74 82h217v141q0 86 100 86q104 0 105 -86v-141h223q76 0 76 -82q0 -86 -76 -86h-223v-146q0 -88 -97 -88q-104 0 -104 88v146h-221q-74 0 -74 86z" />
<glyph unicode="&#xb2;" horiz-adv-x="1392" d="M68 453v270q0 266 444 266h322q158 0 157 80v105q0 78 -147 77h-250q-92 0 -92 90t92 91h233q375 0 375 -279v-63q0 -283 -389 -283h-330q-209 0 -209 -82v-170h844q84 0 84 -92q0 -88 -84 -88h-971q-79 0 -79 78z" />
<glyph unicode="&#xb3;" horiz-adv-x="1443" d="M61 463q0 92 97 92h649q197 0 197 98v97q0 29 -48 51l5 -2q-61 23 -148 22h-655q-96 0 -97 92q0 92 97 93h655q37 0 69.5 6t63.5 12h-2q59 23 60 57v99q0 72 -193 71h-190q-96 0 -97 90q0 90 97 91h149q444 0 444 -261v-61q0 -125 -141 -190q141 -66 141 -203v-58 q0 -285 -434 -284h-622q-97 0 -97 88z" />
<glyph unicode="&#xb4;" horiz-adv-x="696" d="M100 1255q0 29 21 48l303 323q25 25 57 25q66 0 66 -68q0 -25 -21 -49l-309 -324q-18 -23 -51 -22q-66 -1 -66 67z" />
<glyph unicode="&#xb5;" horiz-adv-x="1765" d="M193 -217v1243q0 84 98 84t98 -84v-860h768q287 0 287 151v709q0 84 98 84q100 0 100 -84v-709q0 -317 -520 -317h-733v-217q0 -94 -98 -94t-98 94z" />
<glyph unicode="&#x3bc;" horiz-adv-x="1765" d="M193 -217v1243q0 84 98 84t98 -84v-860h768q287 0 287 151v709q0 84 98 84q100 0 100 -84v-709q0 -317 -520 -317h-733v-217q0 -94 -98 -94t-98 94z" />
<glyph unicode="&#xb6;" horiz-adv-x="1630" d="M49 1112q0 319 416 320h842q72 0 71 -70v-1282q0 -90 -108 -90q-106 0 -107 90v698h-309v-698q0 -88 -109 -88q-106 0 -106 88v698h-158q-432 0 -432 334zM256 1112q0 -160 193 -160h714v310h-723q-184 0 -184 -150z" />
<glyph unicode="&#xb7;" horiz-adv-x="632" d="M143 590q0 106 138 106q137 0 137 -106t-137 -107q-138 1 -138 107z" />
<glyph unicode="&#x2219;" horiz-adv-x="632" d="M143 590q0 106 138 106q137 0 137 -106t-137 -107q-138 1 -138 107z" />
<glyph unicode="&#xb8;" horiz-adv-x="706" d="M10 -264q0 84 82 84h127q82 0 82 92v68q0 80 100 79q96 0 97 -79v-70q0 -258 -283 -258h-123q-82 0 -82 84z" />
<glyph unicode="&#xb9;" horiz-adv-x="667" d="M190 461v885q0 92 105 92q106 0 106 -92v-885q0 -92 -108 -92q-103 0 -103 92z" />
<glyph unicode="&#xba;" horiz-adv-x="806" d="M127 1214q0 53 19.5 101.5t53 82.5t79 54.5t94.5 20.5q109 0 176 -76h-2q74 -72 74 -183q0 -104 -74 -182h2q-70 -78 -176 -78q-49 0 -94.5 20.5t-79 54.5t-53 81t-19.5 104zM256 1214q0 -25 8 -46t24.5 -39.5t37 -28.5t47.5 -10q49 0 82.5 35.5t33.5 88.5t-32.5 90 t-83.5 37q-49 0 -83 -37t-34 -90z" />
<glyph unicode="&#xbb;" horiz-adv-x="1423" d="M119 954q0 39 27.5 71t68.5 32q12 0 27.5 -5t27.5 -18l422 -325q41 -33 41 -78q0 -47 -43 -76l-420 -326q-16 -12 -29.5 -16t-25.5 -4q-41 0 -67.5 29.5t-26.5 66.5q0 45 43 76l332 252l-332 244q-27 16 -36 37.5t-9 39.5zM684 954q0 39 28.5 71t65.5 32q18 0 33.5 -5 t26.5 -18l422 -325q41 -33 40 -78q0 -47 -43 -76l-419 -326q-31 -20 -60 -20q-37 0 -64.5 29.5t-27.5 66.5q0 45 43 76l334 252l-334 244q-25 16 -35 37.5t-10 39.5z" />
<glyph unicode="&#xbc;" horiz-adv-x="3147" d="M172 461v885q0 92 104 92t105 -92v-885q0 -92 -107 -92q-102 0 -102 92zM393 68q0 35 29 67l1251 1290q33 33 78 33q102 0 102 -96q0 -39 -34 -74l-1268 -1290q-31 -27 -64 -27q-94 1 -94 97zM1767 360v596q0 92 101 93q102 0 102 -93v-505h793v505q0 92 102 93 q106 0 107 -93v-884q0 -92 -107 -92q-102 0 -102 92v178h-889q-57 0 -82 25.5t-25 84.5z" />
<glyph unicode="&#xbd;" horiz-adv-x="2785" d="M172 461v885q0 92 104 92t105 -92v-885q0 -92 -107 -92q-102 0 -102 92zM362 68q0 35 29 67l1251 1290q31 33 78 33q102 0 103 -96q0 -39 -35 -74l-1268 -1290q-33 -27 -65 -27q-93 1 -93 97zM1513 80v268q0 266 445 266h319q160 0 160 80v103q0 80 -145 80h-252 q-90 0 -90 92q0 90 90 90h233q377 0 377 -281v-63q0 -283 -389 -283h-332q-205 0 -205 -82v-170h840q86 0 86 -90t-86 -90h-971q-80 0 -80 80z" />
<glyph unicode="&#xbe;" horiz-adv-x="3837" d="M55 463q0 92 92 92h650q197 0 196 98v97q0 29 -43 51l4 -2q-66 23 -149 22h-658q-92 0 -92 92t92 93h658q37 0 69.5 6t61.5 12q57 23 57 57v99q0 72 -192 71h-191q-94 0 -94 90t94 91h152q442 0 442 -261v-61q0 -123 -127 -190q127 -66 127 -203v-58q0 -285 -432 -284 h-625q-92 0 -92 88zM1073 68q0 35 29 67l1251 1290q33 33 78 33q102 0 102 -96q0 -39 -34 -74l-1268 -1290q-33 -27 -66 -27q-92 1 -92 97zM2441 365v596q0 92 105 92q100 0 100 -92v-506h793v506q0 92 102 92q106 0 106 -92v-885q0 -94 -106 -94q-102 0 -102 94v178h-891 q-55 0 -81 26t-26 85z" />
<glyph unicode="&#xbf;" horiz-adv-x="1226" d="M8 -61v176q0 315 551 315h272q82 0 82 102v31q0 106 105 107q94 0 94 -107v-61q0 -238 -352 -238h-240q-158 0 -236.5 -41t-78.5 -117v-163q0 -203 315 -203h94q78 0 78 -82q0 -86 -106 -86h-31q-547 5 -547 367zM883 889q0 106 135 106q139 0 139 -106t-135 -107 q-139 1 -139 107z" />
<glyph unicode="&#xc0;" horiz-adv-x="2121" d="M55 86q0 27 15 53l821 1231q27 39 62.5 57.5t74.5 18.5t75 -18.5t60 -57.5l826 -1229q12 -14 15 -29.5t3 -25.5q0 -43 -31.5 -67.5t-74.5 -24.5q-20 0 -44 11t-42 34l-236 350h-1098l-237 -354q-16 -23 -39 -34t-41 -11q-43 0 -76 27.5t-33 68.5zM594 563h866l-428 684z M807 1919q0 27 20.5 48.5t44.5 21.5q14 0 26.5 -6.5t27.5 -18.5l307 -326q20 -23 20 -40q0 -27 -24.5 -46.5t-50.5 -19.5q-27 0 -43 18l-306 320q-12 10 -17 22.5t-5 26.5z" />
<glyph unicode="&#xc1;" horiz-adv-x="2121" d="M55 86q0 27 15 53l821 1231q27 39 62.5 57.5t74.5 18.5t75 -18.5t60 -57.5l826 -1229q12 -14 15 -29.5t3 -25.5q0 -43 -31.5 -67.5t-74.5 -24.5q-20 0 -44 11t-42 34l-236 350h-1098l-237 -354q-16 -23 -39 -34t-41 -11q-43 0 -76 27.5t-33 68.5zM594 563h866l-428 684z M807 1593q0 29 21 48l303 323q25 25 57 25q66 0 66 -68q0 -25 -21 -49l-309 -324q-18 -23 -51 -22q-66 -1 -66 67z" />
<glyph unicode="&#xc2;" horiz-adv-x="2121" d="M55 86q0 27 15 53l821 1231q27 39 62.5 57.5t74.5 18.5t75 -18.5t60 -57.5l826 -1229q12 -14 15 -29.5t3 -25.5q0 -43 -31.5 -67.5t-74.5 -24.5q-20 0 -44 11t-42 34l-236 350h-1098l-237 -354q-16 -23 -39 -34t-41 -11q-43 0 -76 27.5t-33 68.5zM594 563h866l-428 684z M652 1589q0 16 16 41l289 307q18 14 34.5 22.5t39.5 8.5q27 0 44 -8t31 -23l283 -299q25 -31 24 -51q0 -29 -26.5 -52t-48.5 -23q-29 0 -47 24v-2l-260 270l-256 -270q-23 -23 -46 -22q-31 0 -54 23t-23 54z" />
<glyph unicode="&#xc3;" horiz-adv-x="2121" d="M55 86q0 27 15 53l821 1231q27 39 62.5 57.5t74.5 18.5t75 -18.5t60 -57.5l826 -1229q12 -14 15 -29.5t3 -25.5q0 -43 -31.5 -67.5t-74.5 -24.5q-20 0 -44 11t-42 34l-236 350h-1098l-237 -354q-16 -23 -39 -34t-41 -11q-43 0 -76 27.5t-33 68.5zM594 563h866l-428 684z M557 1804q0 84 88 84h766q90 0 90 -80t-90 -79h-766q-88 -1 -88 75z" />
<glyph unicode="&#xc4;" horiz-adv-x="2121" d="M55 86q0 27 15 53l821 1231q27 39 62.5 57.5t74.5 18.5t75 -18.5t60 -57.5l826 -1229q12 -14 15 -29.5t3 -25.5q0 -43 -31.5 -67.5t-74.5 -24.5q-20 0 -44 11t-42 34l-236 350h-1098l-237 -354q-16 -23 -39 -34t-41 -11q-43 0 -76 27.5t-33 68.5zM594 563h866l-428 684z M708 1813q0 94 121 94q119 0 119 -94q0 -96 -119 -97q-121 1 -121 97zM1110 1813q0 94 122 94q119 0 119 -94q0 -96 -119 -97q-122 1 -122 97z" />
<glyph unicode="&#xc5;" horiz-adv-x="2121" d="M55 86q0 27 15 53l821 1231q27 39 62.5 57.5t74.5 18.5t75 -18.5t60 -57.5l826 -1229q12 -14 15 -29.5t3 -25.5q0 -43 -31.5 -67.5t-74.5 -24.5q-20 0 -44 11t-42 34l-236 350h-1098l-237 -354q-16 -23 -39 -34t-41 -11q-43 0 -76 27.5t-33 68.5zM594 563h866l-428 684z M793 1798q0 111 76 178h-2q70 66 166 66q47 0 91 -19.5t76.5 -52.5t51 -77t18.5 -95q0 -47 -18.5 -90t-52 -75.5t-76.5 -52t-90 -19.5q-53 0 -97.5 19.5t-76 52t-49 75.5t-17.5 90zM910 1798q0 -45 34.5 -79.5t88.5 -34.5q49 0 84.5 34.5t35.5 79.5q0 53 -35.5 86t-84.5 33 q-53 0 -88 -33t-35 -86z" />
<glyph unicode="&#xc6;" horiz-adv-x="2197" d="M8 88q0 25 15 49l823 1233q41 61 139 62h563q74 0 74 -89q0 -82 -74 -81h-256v-465h715q76 0 76 -88q0 -86 -76 -86h-715v-451h715q78 0 78 -86t-78 -86h-823q-109 0 -109 86v537h-485l-391 -588q-16 -23 -38 -34t-44 -11q-20 0 -40 9t-36 21.5t-24.5 30t-8.5 37.5z M702 797h373v465h-59z" />
<glyph unicode="&#xc7;" horiz-adv-x="1810" d="M170 358v736q0 338 563 338h828q78 0 77 -86q0 -84 -77 -84h-822q-358 0 -358 -168v-729q0 -193 393 -193h787q78 0 77 -86q0 -86 -77 -86h-816q-575 0 -575 358zM631 -264q0 84 82 84h127q82 0 82 92v68q0 80 100 79q96 0 97 -79v-70q0 -258 -283 -258h-123 q-82 0 -82 84z" />
<glyph unicode="&#xc8;" horiz-adv-x="1857" d="M170 344v733q0 176 143.5 265.5t431.5 89.5h250q74 0 74 -89q0 -82 -74 -81h-168q-442 0 -442 -185v-280h1260q74 0 73 -88q0 -86 -73 -86h-1260v-269q0 -182 348 -182h912q78 0 77 -86q0 -86 -77 -86h-920q-555 0 -555 344zM678 1919q0 27 20.5 48.5t44.5 21.5 q14 0 26.5 -6.5t27.5 -18.5l307 -326q20 -23 20 -40q0 -27 -24.5 -46.5t-50.5 -19.5q-27 0 -43 18l-306 320q-12 10 -17 22.5t-5 26.5z" />
<glyph unicode="&#xc9;" horiz-adv-x="1857" d="M170 344v733q0 176 143.5 265.5t431.5 89.5h250q74 0 74 -89q0 -82 -74 -81h-168q-442 0 -442 -185v-280h1260q74 0 73 -88q0 -86 -73 -86h-1260v-269q0 -182 348 -182h912q78 0 77 -86q0 -86 -77 -86h-920q-555 0 -555 344zM673 1593q0 29 21 48l303 323q25 25 57 25 q66 0 66 -68q0 -25 -21 -49l-309 -324q-18 -23 -51 -22q-66 -1 -66 67z" />
<glyph unicode="&#xca;" horiz-adv-x="1857" d="M170 344v733q0 176 143.5 265.5t431.5 89.5h250q74 0 74 -89q0 -82 -74 -81h-168q-442 0 -442 -185v-280h1260q74 0 73 -88q0 -86 -73 -86h-1260v-269q0 -182 348 -182h912q78 0 77 -86q0 -86 -77 -86h-920q-555 0 -555 344zM519 1589q0 16 16 41l289 307 q18 14 34.5 22.5t39.5 8.5q27 0 44 -8t31 -23l283 -299q25 -31 24 -51q0 -29 -26.5 -52t-48.5 -23q-29 0 -47 24v-2l-260 270l-256 -270q-23 -23 -46 -22q-31 0 -54 23t-23 54z" />
<glyph unicode="&#xcb;" horiz-adv-x="1857" d="M170 344v733q0 176 143.5 265.5t431.5 89.5h250q74 0 74 -89q0 -82 -74 -81h-168q-442 0 -442 -185v-280h1260q74 0 73 -88q0 -86 -73 -86h-1260v-269q0 -182 348 -182h912q78 0 77 -86q0 -86 -77 -86h-920q-555 0 -555 344zM577 1813q0 94 121 94q119 0 119 -94 q0 -96 -119 -97q-121 1 -121 97zM979 1813q0 94 122 94q119 0 119 -94q0 -96 -119 -97q-122 1 -122 97z" />
<glyph unicode="&#xcc;" horiz-adv-x="618" d="M170 80v1274q0 88 113 88q102 0 102 -88v-1274q0 -88 -109 -88q-106 0 -106 88zM12 1919q0 27 20.5 48.5t44.5 21.5q14 0 26.5 -6.5t27.5 -18.5l307 -326q20 -23 20 -40q0 -27 -24.5 -46.5t-50.5 -19.5q-27 0 -43 18l-306 320q-12 10 -17 22.5t-5 26.5z" />
<glyph unicode="&#xcd;" horiz-adv-x="618" d="M170 80v1274q0 88 113 88q102 0 102 -88v-1274q0 -88 -109 -88q-106 0 -106 88zM92 1593q0 29 21 48l303 323q25 25 57 25q66 0 66 -68q0 -25 -21 -49l-309 -324q-18 -23 -51 -22q-66 -1 -66 67z" />
<glyph unicode="&#xce;" horiz-adv-x="618" d="M170 80v1274q0 88 113 88q102 0 102 -88v-1274q0 -88 -109 -88q-106 0 -106 88zM-96 1589q0 16 16 41l289 307q18 14 34.5 22.5t39.5 8.5q27 0 44 -8t31 -23l283 -299q25 -31 24 -51q0 -29 -26.5 -52t-48.5 -23q-29 0 -47 24v-2l-260 270l-256 -270q-23 -23 -46 -22 q-31 0 -54 23t-23 54z" />
<glyph unicode="&#xcf;" horiz-adv-x="618" d="M170 80v1274q0 88 113 88q102 0 102 -88v-1274q0 -88 -109 -88q-106 0 -106 88zM-39 1813q0 94 121 94q119 0 119 -94q0 -96 -119 -97q-121 1 -121 97zM363 1813q0 94 122 94q119 0 119 -94q0 -96 -119 -97q-122 1 -122 97z" />
<glyph unicode="&#xd0;" horiz-adv-x="2115" d="M170 72v1290q0 70 70 70h1091q551 0 551 -355v-702q0 -375 -555 -375h-1087q-70 0 -70 72zM385 172h936q350 0 350 203v702q0 184 -344 185h-942v-1090zM-13 690q0 80 84 80h756q72 0 72 -76q0 -80 -72 -80h-756q-84 0 -84 76z" />
<glyph unicode="&#xd1;" horiz-adv-x="2103" d="M170 80v1227q0 68 41 98.5t90 30.5q29 0 57.5 -9.5t51.5 -31.5l1251 -1108v1065q0 90 111 90q100 0 100 -90v-1221q0 -72 -39 -106.5t-90 -34.5q-25 0 -51.5 9t-49.5 32l-1263 1130v-1081q0 -90 -105 -90q-104 0 -104 90zM549 1804q0 84 88 84h766q90 0 90 -80t-90 -79 h-766q-88 -1 -88 75z" />
<glyph unicode="&#xd2;" horiz-adv-x="2058" d="M170 371v686q0 375 629 375h399q631 0 631 -375v-682q0 -375 -631 -375h-399q-629 0 -629 371zM385 377q0 -205 371 -205h499q360 0 361 205v670q0 215 -348 215h-512q-371 0 -371 -215v-670zM778 1919q0 27 20.5 48.5t44.5 21.5q14 0 26.5 -6.5t27.5 -18.5l307 -326 q20 -23 20 -40q0 -27 -24.5 -46.5t-50.5 -19.5q-27 0 -43 18l-306 320q-12 10 -17 22.5t-5 26.5z" />
<glyph unicode="&#xd3;" horiz-adv-x="2058" d="M170 371v686q0 375 629 375h399q631 0 631 -375v-682q0 -375 -631 -375h-399q-629 0 -629 371zM385 377q0 -205 371 -205h499q360 0 361 205v670q0 215 -348 215h-512q-371 0 -371 -215v-670zM776 1593q0 29 21 48l303 323q25 25 57 25q66 0 66 -68q0 -25 -21 -49 l-309 -324q-18 -23 -51 -22q-66 -1 -66 67z" />
<glyph unicode="&#xd4;" horiz-adv-x="2058" d="M170 371v686q0 375 629 375h399q631 0 631 -375v-682q0 -375 -631 -375h-399q-629 0 -629 371zM385 377q0 -205 371 -205h499q360 0 361 205v670q0 215 -348 215h-512q-371 0 -371 -215v-670zM621 1589q0 16 16 41l289 307q18 14 34.5 22.5t39.5 8.5q27 0 44 -8t31 -23 l283 -299q25 -31 24 -51q0 -29 -26.5 -52t-48.5 -23q-29 0 -47 24v-2l-260 270l-256 -270q-23 -23 -46 -22q-31 0 -54 23t-23 54z" />
<glyph unicode="&#xd5;" horiz-adv-x="2058" d="M170 371v686q0 375 629 375h399q631 0 631 -375v-682q0 -375 -631 -375h-399q-629 0 -629 371zM385 377q0 -205 371 -205h499q360 0 361 205v670q0 215 -348 215h-512q-371 0 -371 -215v-670zM524 1804q0 84 88 84h766q90 0 90 -80t-90 -79h-766q-88 -1 -88 75z" />
<glyph unicode="&#xd6;" horiz-adv-x="2058" d="M170 371v686q0 375 629 375h399q631 0 631 -375v-682q0 -375 -631 -375h-399q-629 0 -629 371zM385 377q0 -205 371 -205h499q360 0 361 205v670q0 215 -348 215h-512q-371 0 -371 -215v-670zM676 1813q0 94 121 94q119 0 119 -94q0 -96 -119 -97q-121 1 -121 97z M1078 1813q0 94 122 94q119 0 119 -94q0 -96 -119 -97q-122 1 -122 97z" />
<glyph unicode="&#xd7;" horiz-adv-x="882" d="M96 365q0 31 25 57l170 168l-170 172q-25 29 -25 59q0 35 24.5 59.5t59.5 24.5q33 0 58 -26l170 -170l174 174q25 27 57 26q35 0 60.5 -25.5t25.5 -58.5q0 -31 -27 -61l-174 -174l174 -172q27 -25 27 -58q0 -35 -25.5 -60.5t-60.5 -25.5q-33 0 -57 29l-174 172l-170 -170 q-25 -27 -58 -26q-35 0 -59.5 25.5t-24.5 60.5z" />
<glyph unicode="&#xd8;" horiz-adv-x="2058" d="M170 371v686q0 375 629 375h399q631 0 631 -375v-682q0 -375 -631 -375h-399q-629 0 -629 371zM385 373q0 -18 2 -19l1049 891q-29 16 -168 17h-512q-371 0 -371 -215v-644v-30zM512 207q68 -35 244 -35h499q360 0 361 205v670q0 35 -17 83z" />
<glyph unicode="&#xd9;" horiz-adv-x="2093" d="M170 393v959q0 90 104 90q111 0 111 -90v-942q0 -238 420 -238h389q459 0 459 238v942q0 90 106 90q104 0 105 -90v-959q0 -393 -705 -393h-321q-668 0 -668 393zM795 1919q0 27 20.5 48.5t44.5 21.5q14 0 26.5 -6.5t27.5 -18.5l307 -326q20 -23 20 -40 q0 -27 -24.5 -46.5t-50.5 -19.5q-27 0 -43 18l-306 320q-12 10 -17 22.5t-5 26.5z" />
<glyph unicode="&#xda;" horiz-adv-x="2093" d="M170 393v959q0 90 104 90q111 0 111 -90v-942q0 -238 420 -238h389q459 0 459 238v942q0 90 106 90q104 0 105 -90v-959q0 -393 -705 -393h-321q-668 0 -668 393zM792 1593q0 29 21 48l303 323q25 25 57 25q66 0 66 -68q0 -25 -21 -49l-309 -324q-18 -23 -51 -22 q-66 -1 -66 67z" />
<glyph unicode="&#xdb;" horiz-adv-x="2093" d="M170 393v959q0 90 104 90q111 0 111 -90v-942q0 -238 420 -238h389q459 0 459 238v942q0 90 106 90q104 0 105 -90v-959q0 -393 -705 -393h-321q-668 0 -668 393zM635 1589q0 16 16 41l289 307q18 14 34.5 22.5t39.5 8.5q27 0 44 -8t31 -23l283 -299q25 -31 24 -51 q0 -29 -26.5 -52t-48.5 -23q-29 0 -47 24v-2l-260 270l-256 -270q-23 -23 -46 -22q-31 0 -54 23t-23 54z" />
<glyph unicode="&#xdc;" horiz-adv-x="2093" d="M170 393v959q0 90 104 90q111 0 111 -90v-942q0 -238 420 -238h389q459 0 459 238v942q0 90 106 90q104 0 105 -90v-959q0 -393 -705 -393h-321q-668 0 -668 393zM694 1813q0 94 121 94q119 0 119 -94q0 -96 -119 -97q-121 1 -121 97zM1096 1813q0 94 122 94 q119 0 119 -94q0 -96 -119 -97q-122 1 -122 97z" />
<glyph unicode="&#xdd;" horiz-adv-x="1785" d="M47 1343q0 37 33 65t74 28q18 0 37.5 -5.5t33.5 -21.5l635 -635l633 635q29 29 72 29q41 0 75.5 -29t34.5 -66q0 -29 -26 -57l-680 -682l-2 -526q-10 -88 -105 -88q-106 0 -106 90v524l-680 682q-29 28 -29 57zM639 1593q0 29 21 48l303 323q25 25 57 25q66 0 66 -68 q0 -25 -21 -49l-309 -324q-18 -23 -51 -22q-66 -1 -66 67z" />
<glyph unicode="&#xde;" horiz-adv-x="2109" d="M170 80v1274q0 88 113 88q102 0 102 -88v-178h922q573 0 573 -318v-254q0 -334 -582 -334h-913v-200q-8 -80 -109 -80q-106 0 -106 90zM385 446h938q346 0 346 170v224q0 164 -332 164h-952v-558z" />
<glyph unicode="&#xdf;" horiz-adv-x="1925" d="M186 72v1022q0 330 400 329h549q565 0 565 -336v-88q0 -201 -215 -278q215 -82 215 -279v-84q0 -358 -565 -358h-396q-86 0 -86 84q0 82 86 82h432q317 0 318 180v137q0 145 -307 146h-228q-84 0 -84 88q0 86 84 86h228q307 0 307 151v154q0 156 -315 156h-603 q-186 0 -186 -170v-1022q0 -90 -100 -90q-99 0 -99 90z" />
<glyph unicode="&#xe0;" horiz-adv-x="1878" d="M96 307v142q0 319 482 319h868q-20 162 -244 162h-241q-72 0 -72 84q0 80 72 80h210q465 0 465 -328v-447q0 -319 -465 -319h-583q-492 0 -492 307zM299 305q0 -139 250 -139h657q242 0 242 211v225h-916q-233 0 -233 -147v-150zM877 1581q0 27 20.5 48.5t44.5 21.5 q14 0 26.5 -6.5t27.5 -18.5l307 -326q20 -23 20 -40q0 -27 -24.5 -46.5t-50.5 -19.5q-27 0 -43 18l-306 320q-12 10 -17 22.5t-5 26.5z" />
<glyph unicode="&#xe1;" horiz-adv-x="1878" d="M96 307v142q0 319 482 319h868q-20 162 -244 162h-241q-72 0 -72 84q0 80 72 80h210q465 0 465 -328v-447q0 -319 -465 -319h-583q-492 0 -492 307zM299 305q0 -139 250 -139h657q242 0 242 211v225h-916q-233 0 -233 -147v-150zM940 1255q0 29 21 48l303 323 q25 25 57 25q66 0 66 -68q0 -25 -21 -49l-309 -324q-18 -23 -51 -22q-66 -1 -66 67z" />
<glyph unicode="&#xe2;" horiz-adv-x="1878" d="M96 307v142q0 319 482 319h868q-20 162 -244 162h-241q-72 0 -72 84q0 80 72 80h210q465 0 465 -328v-447q0 -319 -465 -319h-583q-492 0 -492 307zM299 305q0 -139 250 -139h657q242 0 242 211v225h-916q-233 0 -233 -147v-150zM754 1251q0 16 16 41l289 307 q18 14 34.5 22.5t39.5 8.5q27 0 44 -8t31 -23l283 -299q25 -31 24 -51q0 -29 -26.5 -52t-48.5 -23q-29 0 -47 24v-2l-260 270l-256 -270q-23 -23 -46 -22q-31 0 -54 23t-23 54z" />
<glyph unicode="&#xe3;" horiz-adv-x="1878" d="M96 307v142q0 319 482 319h868q-20 162 -244 162h-241q-72 0 -72 84q0 80 72 80h210q465 0 465 -328v-447q0 -319 -465 -319h-583q-492 0 -492 307zM299 305q0 -139 250 -139h657q242 0 242 211v225h-916q-233 0 -233 -147v-150zM647 1466q0 84 88 84h766q90 0 90 -80 t-90 -79h-766q-88 -1 -88 75z" />
<glyph unicode="&#xe4;" horiz-adv-x="1878" d="M96 307v142q0 319 482 319h868q-20 162 -244 162h-241q-72 0 -72 84q0 80 72 80h210q465 0 465 -328v-447q0 -319 -465 -319h-583q-492 0 -492 307zM299 305q0 -139 250 -139h657q242 0 242 211v225h-916q-233 0 -233 -147v-150zM784 1475q0 94 121 94q119 0 119 -94 q0 -96 -119 -97q-121 1 -121 97zM1186 1475q0 94 122 94q119 0 119 -94q0 -96 -119 -97q-122 1 -122 97z" />
<glyph unicode="&#xe5;" horiz-adv-x="1878" d="M96 307v142q0 319 482 319h868q-20 162 -244 162h-241q-72 0 -72 84q0 80 72 80h210q465 0 465 -328v-447q0 -319 -465 -319h-583q-492 0 -492 307zM299 305q0 -139 250 -139h657q242 0 242 211v225h-916q-233 0 -233 -147v-150zM844 1460q0 111 76 178h-2q70 66 166 66 q47 0 91 -19.5t76.5 -52.5t51 -77t18.5 -95q0 -47 -18.5 -90t-52 -75.5t-76.5 -52t-90 -19.5q-53 0 -97.5 19.5t-76 52t-49 75.5t-17.5 90zM961 1460q0 -45 34.5 -79.5t88.5 -34.5q49 0 84.5 34.5t35.5 79.5q0 53 -35.5 86t-84.5 33q-53 0 -88 -33t-35 -86z" />
<glyph unicode="&#xe6;" horiz-adv-x="2514" d="M170 307v66q0 315 481 315h473v76q-10 166 -379 166h-192q-72 0 -72 84q0 80 72 80h160q408 0 512 -158q53 78 162.5 118t281.5 40h156q459 0 459 -291v-195q0 -90 -86 -90h-879v-205q0 -147 307 -147h293q94 0 94 -82q0 -84 -94 -84h-242q-360 0 -452 164 q-104 -164 -545 -164q-510 0 -510 307zM369 305q0 -139 252 -139h262q242 0 241 211v145h-526q-229 0 -229 -147v-70zM1319 688h772v94q0 147 -227 148h-238q-307 0 -307 -156v-86z" />
<glyph unicode="&#xe7;" horiz-adv-x="1642" d="M170 324v448q0 322 492 322h731q94 0 94 -80q0 -84 -94 -84h-758q-266 0 -266 -152v-446q0 -166 305 -166h719q86 0 86 -88q0 -78 -86 -78h-682q-541 0 -541 324zM545 -264q0 84 82 84h127q82 0 82 92v68q0 80 100 79q96 0 97 -79v-70q0 -258 -283 -258h-123 q-82 0 -82 84z" />
<glyph unicode="&#xe8;" horiz-adv-x="1851" d="M170 338v420q0 336 549 336h450q461 0 461 -291v-262q0 -92 -88 -92h-1173v-136q0 -147 305 -147h219q84 0 84 -82q0 -84 -84 -84h-168q-555 0 -555 338zM369 621h1069v161q0 147 -230 148h-534q-305 0 -305 -156v-153zM674 1581q0 27 20.5 48.5t44.5 21.5 q14 0 26.5 -6.5t27.5 -18.5l307 -326q20 -23 20 -40q0 -27 -24.5 -46.5t-50.5 -19.5q-27 0 -43 18l-306 320q-12 10 -17 22.5t-5 26.5z" />
<glyph unicode="&#xe9;" horiz-adv-x="1851" d="M170 338v420q0 336 549 336h450q461 0 461 -291v-262q0 -92 -88 -92h-1173v-136q0 -147 305 -147h219q84 0 84 -82q0 -84 -84 -84h-168q-555 0 -555 338zM369 621h1069v161q0 147 -230 148h-534q-305 0 -305 -156v-153zM671 1255q0 29 21 48l303 323q25 25 57 25 q66 0 66 -68q0 -25 -21 -49l-309 -324q-18 -23 -51 -22q-66 -1 -66 67z" />
<glyph unicode="&#xea;" horiz-adv-x="1851" d="M170 338v420q0 336 549 336h450q461 0 461 -291v-262q0 -92 -88 -92h-1173v-136q0 -147 305 -147h219q84 0 84 -82q0 -84 -84 -84h-168q-555 0 -555 338zM369 621h1069v161q0 147 -230 148h-534q-305 0 -305 -156v-153zM519 1251q0 16 16 41l289 307q18 14 34.5 22.5 t39.5 8.5q27 0 44 -8t31 -23l283 -299q25 -31 24 -51q0 -29 -26.5 -52t-48.5 -23q-29 0 -47 24v-2l-260 270l-256 -270q-23 -23 -46 -22q-31 0 -54 23t-23 54z" />
<glyph unicode="&#xeb;" horiz-adv-x="1851" d="M170 338v420q0 336 549 336h450q461 0 461 -291v-262q0 -92 -88 -92h-1173v-136q0 -147 305 -147h219q84 0 84 -82q0 -84 -84 -84h-168q-555 0 -555 338zM369 621h1069v161q0 147 -230 148h-534q-305 0 -305 -156v-153zM575 1475q0 94 121 94q119 0 119 -94 q0 -96 -119 -97q-121 1 -121 97zM977 1475q0 94 122 94q119 0 119 -94q0 -96 -119 -97q-122 1 -122 97z" />
<glyph unicode="&#xec;" horiz-adv-x="655" d="M193 78v868q0 84 94 84q100 0 100 -84v-868q0 -88 -98 -88q-96 0 -96 88zM64 1581q0 27 20.5 48.5t44.5 21.5q14 0 26.5 -6.5t27.5 -18.5l307 -326q20 -23 20 -40q0 -27 -24.5 -46.5t-50.5 -19.5q-27 0 -43 18l-306 320q-12 10 -17 22.5t-5 26.5z" />
<glyph unicode="&#xed;" horiz-adv-x="655" d="M193 78v868q0 84 94 84q100 0 100 -84v-868q0 -88 -98 -88q-96 0 -96 88zM57 1255q0 29 21 48l303 323q25 25 57 25q66 0 66 -68q0 -25 -21 -49l-309 -324q-18 -23 -51 -22q-66 -1 -66 67z" />
<glyph unicode="&#xee;" horiz-adv-x="655" d="M193 78v868q0 84 94 84q100 0 100 -84v-868q0 -88 -98 -88q-96 0 -96 88zM-86 1251q0 16 16 41l289 307q18 14 34.5 22.5t39.5 8.5q27 0 44 -8t31 -23l283 -299q25 -31 24 -51q0 -29 -26.5 -52t-48.5 -23q-29 0 -47 24v-2l-260 270l-256 -270q-23 -23 -46 -22 q-31 0 -54 23t-23 54z" />
<glyph unicode="&#xef;" horiz-adv-x="655" d="M193 78v868q0 84 94 84q100 0 100 -84v-868q0 -88 -98 -88q-96 0 -96 88zM-27 1475q0 94 121 94q119 0 119 -94q0 -96 -119 -97q-121 1 -121 97zM375 1475q0 94 122 94q119 0 119 -94q0 -96 -119 -97q-122 1 -122 97z" />
<glyph unicode="&#xf0;" horiz-adv-x="1859" d="M170 332v432q0 330 580 330h475q72 0 71 -82q0 -82 -79 -82h-506q-342 0 -342 -168v-434q0 -162 295 -162l446 -2q317 -4 317 180v764q0 152 -315 152h-188q-86 0 -86 81q0 82 86 82h163q543 0 543 -346v-741q0 -336 -575 -336h-357q-528 0 -528 332z" />
<glyph unicode="&#xf1;" d="M170 78v719q0 297 528 297h385q530 0 531 -297v-719q0 -88 -101 -88q-102 0 -102 88v719q0 133 -268 133h-500q-274 0 -274 -133v-719q0 -88 -99 -88q-100 0 -100 88zM417 1466q0 84 88 84h766q90 0 90 -80t-90 -79h-766q-88 -1 -88 75z" />
<glyph unicode="&#xf2;" d="M170 332v422q0 340 532 340h396q516 0 516 -338v-424q0 -332 -516 -332h-402q-526 0 -526 332zM369 332q0 -166 305 -166h454q281 0 281 166v440q0 158 -281 158h-454q-305 0 -305 -176v-422zM670 1581q0 27 20.5 48.5t44.5 21.5q14 0 26.5 -6.5t27.5 -18.5l307 -326 q20 -23 20 -40q0 -27 -24.5 -46.5t-50.5 -19.5q-27 0 -43 18l-306 320q-12 10 -17 22.5t-5 26.5z" />
<glyph unicode="&#xf3;" d="M170 332v422q0 340 532 340h396q516 0 516 -338v-424q0 -332 -516 -332h-402q-526 0 -526 332zM369 332q0 -166 305 -166h454q281 0 281 166v440q0 158 -281 158h-454q-305 0 -305 -176v-422zM667 1255q0 29 21 48l303 323q25 25 57 25q66 0 66 -68q0 -25 -21 -49 l-309 -324q-18 -23 -51 -22q-66 -1 -66 67z" />
<glyph unicode="&#xf4;" d="M170 332v422q0 340 532 340h396q516 0 516 -338v-424q0 -332 -516 -332h-402q-526 0 -526 332zM369 332q0 -166 305 -166h454q281 0 281 166v440q0 158 -281 158h-454q-305 0 -305 -176v-422zM512 1251q0 16 16 41l289 307q18 14 34.5 22.5t39.5 8.5q27 0 44 -8t31 -23 l283 -299q25 -31 24 -51q0 -29 -26.5 -52t-48.5 -23q-29 0 -47 24v-2l-260 270l-256 -270q-23 -23 -46 -22q-31 0 -54 23t-23 54z" />
<glyph unicode="&#xf5;" d="M170 332v422q0 340 532 340h396q516 0 516 -338v-424q0 -332 -516 -332h-402q-526 0 -526 332zM369 332q0 -166 305 -166h454q281 0 281 166v440q0 158 -281 158h-454q-305 0 -305 -176v-422zM417 1466q0 84 88 84h766q90 0 90 -80t-90 -79h-766q-88 -1 -88 75z" />
<glyph unicode="&#xf6;" d="M170 332v422q0 340 532 340h396q516 0 516 -338v-424q0 -332 -516 -332h-402q-526 0 -526 332zM369 332q0 -166 305 -166h454q281 0 281 166v440q0 158 -281 158h-454q-305 0 -305 -176v-422zM569 1475q0 94 121 94q119 0 119 -94q0 -96 -119 -97q-121 1 -121 97z M971 1475q0 94 122 94q119 0 119 -94q0 -96 -119 -97q-122 1 -122 97z" />
<glyph unicode="&#xf7;" horiz-adv-x="985" d="M8 594q0 80 80 80h756q74 0 74 -76q0 -80 -74 -80h-756q-80 0 -80 76zM324 311q0 104 131 105q141 0 141 -105q0 -104 -137 -104q-135 0 -135 104zM324 879q0 106 131 106q141 0 141 -106q0 -104 -137 -105q-135 1 -135 105z" />
<glyph unicode="&#xf8;" d="M170 332v422q0 340 532 340h396q516 0 516 -338v-424q0 -332 -516 -332h-402q-526 0 -526 332zM369 332q0 -39 8 -62l887 648q-35 4 -68 8t-68 4h-454q-305 0 -305 -176v-422zM524 178q61 -12 150 -12h454q281 0 281 166v440q0 25 -8 45z" />
<glyph unicode="&#xf9;" horiz-adv-x="1882" d="M182 317v709q0 86 99 86q98 0 98 -86v-709q0 -152 332 -151h409q324 0 324 147v713q0 84 102 84q98 0 99 -84v-709q0 -317 -558 -317h-344q-561 0 -561 317zM690 1581q0 27 20.5 48.5t44.5 21.5q14 0 26.5 -6.5t27.5 -18.5l307 -326q20 -23 20 -40q0 -27 -24.5 -46.5 t-50.5 -19.5q-27 0 -43 18l-306 320q-12 10 -17 22.5t-5 26.5z" />
<glyph unicode="&#xfa;" horiz-adv-x="1882" d="M182 317v709q0 86 99 86q98 0 98 -86v-709q0 -152 332 -151h409q324 0 324 147v713q0 84 102 84q98 0 99 -84v-709q0 -317 -558 -317h-344q-561 0 -561 317zM688 1255q0 29 21 48l303 323q25 25 57 25q66 0 66 -68q0 -25 -21 -49l-309 -324q-18 -23 -51 -22 q-66 -1 -66 67z" />
<glyph unicode="&#xfb;" horiz-adv-x="1882" d="M182 317v709q0 86 99 86q98 0 98 -86v-709q0 -152 332 -151h409q324 0 324 147v713q0 84 102 84q98 0 99 -84v-709q0 -317 -558 -317h-344q-561 0 -561 317zM531 1251q0 16 16 41l289 307q18 14 34.5 22.5t39.5 8.5q27 0 44 -8t31 -23l283 -299q25 -31 24 -51 q0 -29 -26.5 -52t-48.5 -23q-29 0 -47 24v-2l-260 270l-256 -270q-23 -23 -46 -22q-31 0 -54 23t-23 54z" />
<glyph unicode="&#xfc;" horiz-adv-x="1882" d="M182 317v709q0 86 99 86q98 0 98 -86v-709q0 -152 332 -151h409q324 0 324 147v713q0 84 102 84q98 0 99 -84v-709q0 -317 -558 -317h-344q-561 0 -561 317zM586 1475q0 94 121 94q119 0 119 -94q0 -96 -119 -97q-121 1 -121 97zM988 1475q0 94 122 94q119 0 119 -94 q0 -96 -119 -97q-122 1 -122 97z" />
<glyph unicode="&#xfd;" horiz-adv-x="1849" d="M170 317v709q0 84 100 84q98 0 99 -84v-709q0 -152 284 -151h770v860q0 84 99 84q98 0 98 -84v-1036q0 -301 -453 -301h-249q-76 0 -76 82q0 80 76 79h268q238 0 237 140v10h-733q-520 0 -520 317zM671 1255q0 29 21 48l303 323q25 25 57 25q66 0 66 -68q0 -25 -21 -49 l-309 -324q-18 -23 -51 -22q-66 -1 -66 67z" />
<glyph unicode="&#xfe;" horiz-adv-x="1859" d="M170 -248v1602q0 88 98 88q100 0 101 -88v-322q119 61 327 62h381q553 0 553 -312v-452q0 -330 -495 -330h-766v-248q0 -90 -101 -90q-98 0 -98 90zM369 166h798q260 0 260 162v450q0 152 -317 152h-436q-305 0 -305 -156v-608z" />
<glyph unicode="&#xff;" horiz-adv-x="1849" d="M170 317v709q0 84 100 84q98 0 99 -84v-709q0 -152 284 -151h770v860q0 84 99 84q98 0 98 -84v-1036q0 -301 -453 -301h-249q-76 0 -76 82q0 80 76 79h268q238 0 237 140v10h-733q-520 0 -520 317zM573 1475q0 94 121 94q119 0 119 -94q0 -96 -119 -97q-121 1 -121 97z M975 1475q0 94 122 94q119 0 119 -94q0 -96 -119 -97q-122 1 -122 97z" />
<glyph unicode="&#x131;" horiz-adv-x="655" d="M193 78v868q0 84 94 84q100 0 100 -84v-868q0 -88 -98 -88q-96 0 -96 88z" />
<glyph unicode="&#x152;" horiz-adv-x="2213" d="M178 371v686q0 375 590 375h106q377 0 490 -181q109 180 463 181h125q86 0 86 -86q0 -80 -90 -80h-93q-395 0 -395 -189v-280h490q88 0 88 -88q0 -86 -88 -86h-486v-269q0 -182 379 -182h107q88 0 88 -86t-88 -86h-142q-348 0 -456 205q-111 -205 -473 -205h-103 q-598 0 -598 371zM393 377q0 -205 404 -205h61q399 0 399 205v670q0 215 -401 215h-55q-408 0 -408 -215v-670z" />
<glyph unicode="&#x153;" horiz-adv-x="2355" d="M170 332v422q0 340 553 340q340 0 438 -146q100 145 490 146h6q469 0 469 -291v-260q0 -80 -74 -80h-792v-131q0 -166 339 -166h162q88 0 88 -86q0 -80 -88 -80h-108q-385 0 -486 160q-104 -160 -462 -160q-535 0 -535 332zM369 332q0 -166 282 -166h101q309 0 309 166 v440q0 158 -262 158h-137q-293 0 -293 -176v-422zM1260 635h673v147q0 154 -239 154h-84q-350 0 -350 -162v-139z" />
<glyph unicode="&#x178;" horiz-adv-x="1744" d="M47 1343q0 37 33 65t74 28q18 0 37.5 -5.5t33.5 -21.5l635 -635l633 635q29 29 72 29q41 0 75.5 -29t34.5 -66q0 -29 -26 -57l-680 -682l-2 -526q-10 -88 -105 -88q-106 0 -106 90v524l-680 682q-29 28 -29 57zM518 1813q0 94 121 94q119 0 119 -94q0 -96 -119 -97 q-121 1 -121 97zM920 1813q0 94 122 94q119 0 119 -94q0 -96 -119 -97q-122 1 -122 97z" />
<glyph unicode="&#x2c6;" horiz-adv-x="960" d="M70 1251q0 16 16 41l289 307q18 14 34.5 22.5t39.5 8.5q27 0 44 -8t31 -23l283 -299q25 -31 24 -51q0 -29 -26.5 -52t-48.5 -23q-29 0 -47 24v-2l-260 270l-256 -270q-23 -23 -46 -22q-31 0 -54 23t-23 54z" />
<glyph unicode="&#x2da;" horiz-adv-x="796" d="M127 1460q0 111 76 178h-2q70 66 166 66q47 0 91 -19.5t76.5 -52.5t51 -77t18.5 -95q0 -47 -18.5 -90t-52 -75.5t-76.5 -52t-90 -19.5q-53 0 -97.5 19.5t-76 52t-49 75.5t-17.5 90zM244 1460q0 -45 34.5 -79.5t88.5 -34.5q49 0 84.5 34.5t35.5 79.5q0 53 -35.5 86 t-84.5 33q-53 0 -88 -33t-35 -86z" />
<glyph unicode="&#x2dc;" horiz-adv-x="1378" d="M184 1466q0 84 88 84h766q90 0 90 -80t-90 -79h-766q-88 -1 -88 75z" />
<glyph unicode="&#x2013;" horiz-adv-x="1550" d="M186 594q0 80 82 80h961q74 0 74 -76q0 -80 -74 -80h-961q-82 0 -82 76z" />
<glyph unicode="&#x2014;" horiz-adv-x="1882" d="M188 594q0 80 82 80h1289q72 0 71 -76q0 -80 -71 -80h-1289q-82 0 -82 76z" />
<glyph unicode="&#x2018;" horiz-adv-x="446" d="M41 1356v14q0 39 27.5 59.5t64.5 20.5q41 0 78 -23.5t43 -68.5l65 -342q2 -6 3 -12v-11q0 -37 -26 -56t-60 -19q-31 0 -63 19t-42 64l-88 342q-2 9 -2 13z" />
<glyph unicode="&#x2019;" horiz-adv-x="448" d="M51 993q0 6 4 23l62 342q8 45 44 68.5t77 23.5q37 0 64.5 -20.5t27.5 -59.5v-13q0 -5 -2 -14l-86 -342q-12 -45 -44 -64t-65 -19q-35 0 -58.5 19t-23.5 56z" />
<glyph unicode="&#x201a;" horiz-adv-x="446" d="M57 -135q0 2 1 3t1 5l66 350q8 45 44 69.5t75 24.5q43 0 68.5 -21.5t25.5 -59.5v-13q0 -6 -2 -10l-86 -344q-14 -43 -46 -63.5t-65 -20.5q-35 0 -58.5 23.5t-23.5 56.5z" />
<glyph unicode="&#x201c;" horiz-adv-x="866" d="M111 1356v14q0 39 27.5 59.5t62.5 20.5q43 0 79.5 -23.5t43.5 -68.5l63 -342q2 -6 2 -12v-11q0 -37 -24.5 -56t-59.5 -19q-31 0 -61.5 19t-44.5 64l-86 342q-2 9 -2 13zM397 1356v14q0 39 27 59.5t63 20.5q41 0 78 -23.5t45 -68.5l64 -342q2 -6 2 -12v-11 q0 -37 -24.5 -56t-59.5 -19q-31 0 -62.5 19t-44.5 64l-84 342q-4 9 -4 13z" />
<glyph unicode="&#x201d;" horiz-adv-x="864" d="M127 995q0 12 2 21l64 342q6 45 42.5 68.5t77.5 23.5q39 0 67 -21.5t28 -62.5q0 -6 -5 -23l-86 -342q-12 -45 -43.5 -64t-62.5 -19q-37 0 -60.5 19t-23.5 58zM410 995v21l67 342q6 45 43 68.5t78 23.5q39 0 65.5 -21.5t26.5 -62.5q0 -6 -4 -23l-84 -342q-12 -45 -45 -64 t-63 -19q-35 0 -59.5 19t-24.5 58z" />
<glyph unicode="&#x201e;" horiz-adv-x="813" d="M440 -135q0 2 1 3t1 5l66 350q8 45 44 69.5t75 24.5q43 0 68.5 -21.5t25.5 -59.5v-13q0 -6 -2 -10l-86 -344q-14 -43 -46 -63.5t-65 -20.5q-35 0 -58.5 23.5t-23.5 56.5zM57 -135q0 2 1 3t1 5l66 350q8 45 44 69.5t75 24.5q43 0 68.5 -21.5t25.5 -59.5v-13q0 -6 -2 -10 l-86 -344q-14 -43 -46 -63.5t-65 -20.5q-35 0 -58.5 23.5t-23.5 56.5z" />
<glyph unicode="&#x2022;" horiz-adv-x="1056" d="M180 481v219q0 141 205 142h231q193 0 193 -129v-232q0 -135 -191 -135h-233q-205 0 -205 135z" />
<glyph unicode="&#x2026;" horiz-adv-x="2326" d="M184 111q0 104 140 104q139 0 139 -104q0 -109 -139 -109q-140 0 -140 109zM1001 111q0 104 140 104q137 0 137 -104q0 -109 -137 -109q-140 0 -140 109zM1804 111q0 104 138 104q139 0 139 -104q0 -109 -139 -109q-138 0 -138 109z" />
<glyph unicode="&#x2039;" horiz-adv-x="757" d="M-8 631q0 49 45 78l418 323q14 10 29.5 15.5t29.5 7.5q39 0 64.5 -31t25.5 -70q0 -45 -41 -75l-332 -250l332 -244q27 -16 35 -37.5t8 -42.5q0 -37 -26.5 -67.5t-65.5 -30.5q-16 0 -31.5 4t-27.5 16l-420 328q-43 31 -43 76z" />
<glyph unicode="&#x203a;" horiz-adv-x="755" d="M86 305q0 47 43 80l332 244l-332 250q-25 18 -33 37.5t-8 37.5q0 41 26.5 70t65.5 29q12 -4 25.5 -7.5t30.5 -13.5l421 -323q20 -18 31.5 -36t11.5 -42q0 -45 -43 -76l-419 -328q-14 -12 -27.5 -16t-30.5 -4q-39 0 -66.5 29.5t-27.5 68.5z" />
<glyph unicode="&#x20ac;" horiz-adv-x="1890" d="M127 524q0 78 74 78h57v203h-57q-74 0 -74 84q0 74 74 74h57v131q0 338 565 338h852q78 0 78 -86q0 -84 -78 -84h-846q-358 0 -358 -168v-131h913q82 0 82 -80q0 -78 -82 -78h-913v-203h711q72 0 71 -80q0 -76 -71 -76h-711v-81q0 -193 393 -193h877q78 0 78 -86t-78 -86 h-905q-578 0 -578 358v88h-57q-74 0 -74 78z" />
<glyph unicode="&#x2122;" horiz-adv-x="2236" d="M162 1346q0 68 63 67h504q63 0 64 -67q0 -74 -64 -74h-156v-637q0 -72 -90 -72t-90 72v637h-168q-63 0 -63 74zM944 635v680q0 104 100 104q70 0 127 -65l326 -459l322 471q45 53 120 53q104 0 105 -108v-676q0 -72 -92 -72q-84 0 -84 72v528l-250 -379q-43 -57 -123 -57 q-86 0 -131 57l-242 375v-524q0 -72 -90 -72q-88 0 -88 72z" />
<glyph unicode="&#xe000;" horiz-adv-x="1105" d="M0 1105h1105v-1105h-1105v1105z" />
<glyph unicode="&#xfb01;" horiz-adv-x="1562" d="M182 74v1013q0 332 467 332h537q154 0 153 -131q0 -121 -120 -121q-125 0 -138 90h-475q-223 0 -225 -165h485q72 0 72 -84t-72 -84h-485v-850q0 -90 -96 -90q-103 0 -103 90zM1110 74v897q0 86 92 86q102 0 103 -86v-897q0 -90 -101 -90q-94 0 -94 90z" />
<glyph unicode="&#xfb02;" horiz-adv-x="1585" d="M182 78v1016q0 330 467 329h459q225 0 225 -178v-1167q0 -88 -98 -88q-100 0 -100 88v1155q0 31 -39 31h-490q-221 0 -225 -170h391q72 0 72 -80q0 -84 -72 -84h-391v-852q0 -88 -96 -88q-103 0 -103 88z" />
<glyph unicode="&#xfb03;" horiz-adv-x="2285" d="M1849 1251q0 104 132 105q139 0 139 -105q0 -104 -139 -104q-132 0 -132 104zM1892 78v868q0 84 93 84q100 0 100 -84v-868q0 -88 -96 -88q-97 0 -97 88zM1052 78v1016q0 330 463 329h121q78 0 78 -82q0 -78 -76 -77h-164q-223 0 -227 -170h393q74 0 74 -80 q0 -84 -74 -84h-393v-852q0 -88 -96 -88q-99 0 -99 88zM180 78v1016q0 330 463 329h121q78 0 78 -82q0 -78 -76 -77h-164q-223 0 -227 -170h393q74 0 74 -80q0 -84 -74 -84h-393v-852q0 -88 -96 -88q-99 0 -99 88z" />
<glyph unicode="&#xfb04;" horiz-adv-x="2344" d="M1915 78v1276q0 88 98 88q100 0 101 -88v-1276q0 -88 -99 -88q-100 0 -100 88zM1052 78v1016q0 330 463 329h121q78 0 78 -82q0 -78 -76 -77h-164q-223 0 -227 -170h393q74 0 74 -80q0 -84 -74 -84h-393v-852q0 -88 -96 -88q-99 0 -99 88zM180 78v1016q0 330 463 329h121 q78 0 78 -82q0 -78 -76 -77h-164q-223 0 -227 -170h393q74 0 74 -80q0 -84 -74 -84h-393v-852q0 -88 -96 -88q-99 0 -99 88z" />
</font>
</defs>
</svg>
